<?xml version="1.0" encoding="UTF-8" standalone="no"?>
<svg
   xmlns:dc="http://purl.org/dc/elements/1.1/"
   xmlns:cc="http://creativecommons.org/ns#"
   xmlns:rdf="http://www.w3.org/1999/02/22-rdf-syntax-ns#"
   xmlns:svg="http://www.w3.org/2000/svg"
   xmlns="http://www.w3.org/2000/svg"
   xmlns:sodipodi="http://sodipodi.sourceforge.net/DTD/sodipodi-0.dtd"
   xmlns:inkscape="http://www.inkscape.org/namespaces/inkscape"
   inkscape:export-ydpi="200"
   inkscape:export-xdpi="200"
   inkscape:export-filename="/home/simon/Documents/DPhil/projects/p0-FID_signal_processing/code/Python_Scripts/NMR-EsPy/nmrespy/topspin/images/advanced_settings.png"
   width="58.263046mm"
   height="8.8712225mm"
   viewBox="0 0 58.263046 8.8712225"
   version="1.1"
   id="svg8"
   inkscape:version="1.0 (1.0+r73+1)"
   sodipodi:docname="advanced_settings.svg">
  <defs
     id="defs2" />
  <sodipodi:namedview
     id="base"
     pagecolor="#ffffff"
     bordercolor="#666666"
     borderopacity="1.0"
     inkscape:pageopacity="0.0"
     inkscape:pageshadow="2"
     inkscape:zoom="9.3447071"
     inkscape:cx="83.113985"
     inkscape:cy="40.350044"
     inkscape:document-units="mm"
     inkscape:current-layer="layer1"
     inkscape:document-rotation="0"
     showgrid="false"
     inkscape:window-width="3773"
     inkscape:window-height="2105"
     inkscape:window-x="67"
     inkscape:window-y="27"
     inkscape:window-maximized="1" />
  <metadata
     id="metadata5">
    <rdf:RDF>
      <cc:Work
         rdf:about="">
        <dc:format>image/svg+xml</dc:format>
        <dc:type
           rdf:resource="http://purl.org/dc/dcmitype/StillImage" />
        <dc:title />
      </cc:Work>
    </rdf:RDF>
  </metadata>
  <g
     inkscape:label="Layer 1"
     inkscape:groupmode="layer"
     id="layer1"
     transform="translate(-28.130254,-65.422328)">
    <path
       id="path837"
       style="font-style:normal;font-variant:normal;font-weight:normal;font-stretch:normal;font-size:11.4455px;line-height:1.25;font-family:'Poseidon AOE';-inkscape-font-specification:'Poseidon AOE, Normal';font-variant-ligatures:normal;font-variant-caps:normal;font-variant-numeric:normal;font-variant-east-asian:normal;letter-spacing:0px;word-spacing:0px;stroke-width:0.264583"
       d="m 32.307207,71.785835 c 0,0.105727 -0.06608,0.158591 -0.198246,0.158591 -0.957754,-1.451041 -1.259557,-4.516253 -1.903145,-4.539647 -1.029851,-0.0086 -1.479297,4.013494 -1.903151,4.708162 -0.04405,0 -0.09251,-0.01982 -0.145379,-0.05947 -0.255999,-0.148919 1.376991,-6.610622 1.916372,-6.63108 0.49972,-0.0194 1.751097,4.458718 2.233574,6.363446 z"
       sodipodi:nodetypes="cccccccc" />
    <path
       id="path839"
       style="font-style:normal;font-variant:normal;font-weight:normal;font-stretch:normal;font-size:11.4455px;line-height:1.25;font-family:'Poseidon AOE';-inkscape-font-specification:'Poseidon AOE, Normal';font-variant-ligatures:normal;font-variant-caps:normal;font-variant-numeric:normal;font-variant-east-asian:normal;letter-spacing:0px;word-spacing:0px;stroke-width:0.264583"
       d="m 36.48213,71.042442 c -0.327913,0.13084 -0.616148,0.269272 -0.925145,0.356826 -0.203446,0.119242 -0.213996,0.30003 -0.251109,0.485684 0.0042,0.260061 -0.104269,0.216659 -0.23791,0.247788 -0.08523,-0.121232 -0.02259,-0.452977 -0.02645,-0.584803 -0.648953,0.06327 -1.493716,-0.08229 -1.956022,-0.446039 -0.571657,-0.468418 -0.534633,-0.961483 -0.50223,-1.80397 0.118687,-1.201917 1.804882,-1.481713 2.749011,-1.447138 0.03362,-0.791865 -0.296268,-2.303648 -0.158578,-2.309474 0.415866,-0.186091 0.781105,1.87214 0.806194,2.537453 0.07048,0.02643 0.136566,0.05947 0.198245,0.09912 0.07048,0.03304 0.114539,0.07599 0.132164,0.128855 -0.03524,0.03965 -0.0881,0.05947 -0.158596,0.05947 0.0088,0 -0.05286,-0.0066 -0.185029,-0.01982 -0.184656,1.006367 -0.275241,1.838773 -0.390569,2.695835 0.343523,-0.03938 0.62132,-0.159667 0.919221,-0.227789 0.03524,0.04625 0.05286,0.0859 0.05286,0.118943 0,0.01983 -0.02203,0.05617 -0.06608,0.109031 z m -1.149822,-2.805074 c -0.930595,-0.0219 -2.056272,0.160342 -2.088181,1.238988 -0.103706,1.811974 1.285077,1.683172 1.889931,1.615641 0.10709,-1.249874 0.09895,-1.955579 0.198236,-2.85464 z"
       sodipodi:nodetypes="ccccccccccccccccsccccccc" />
    <path
       id="path841"
       style="font-style:normal;font-variant:normal;font-weight:normal;font-stretch:normal;font-size:11.4455px;line-height:1.25;font-family:'Poseidon AOE';-inkscape-font-specification:'Poseidon AOE, Normal';font-variant-ligatures:normal;font-variant-caps:normal;font-variant-numeric:normal;font-variant-east-asian:normal;letter-spacing:0px;word-spacing:0px;stroke-width:0.264583"
       d="m 39.91735,67.384943 q 0,0.0099 0,0.02974 -0.05286,0.04956 -0.356842,0.584803 -0.03965,0.05947 -0.118946,0.178414 -0.171814,0.30727 -0.475789,1.318286 -0.33041,1.050663 -0.33041,1.367845 0,0.08921 -0.01322,0.148678 -0.06608,0.04956 -0.06608,0.188327 0,0.01982 0.01322,0.04956 0.01322,0.02974 0.01322,0.04956 0,0.198238 -0.145379,0.218062 -0.07929,0 -0.211462,-0.07929 -0.06609,-0.118943 -0.105726,-0.346918 -0.03965,-0.227973 -0.09252,-0.327093 -0.330409,-0.72357 -0.978011,-2.160798 -0.118946,-0.25771 -0.436139,-0.872249 -0.132164,-0.237886 -0.132164,-0.327094 0,-0.118943 0.0793,-0.118943 0.05286,0 0.237895,0.277534 0.185029,0.267622 0.224677,0.366741 0.145381,0.109031 0.568304,0.753306 0.06609,0.06938 0.171812,0.20815 0,0.0099 0.0793,0.208151 0.09252,0.198238 0.343625,0.574891 0.0793,-0.09912 0.29076,-0.67401 0.0793,-0.06938 0.132163,-0.227975 0.05286,-0.158591 0.07929,-0.20815 0.171813,-0.25771 0.753333,-0.921809 0.09252,-0.10903 0.277543,-0.317181 0.01322,-0.02974 0.118948,-0.02974 h 0.02643 q 0.05286,0.04956 0.05286,0.08921 z" />
    <path
       id="path843"
       style="font-style:normal;font-variant:normal;font-weight:normal;font-stretch:normal;font-size:11.4455px;line-height:1.25;font-family:'Poseidon AOE';-inkscape-font-specification:'Poseidon AOE, Normal';font-variant-ligatures:normal;font-variant-caps:normal;font-variant-numeric:normal;font-variant-east-asian:normal;letter-spacing:0px;word-spacing:0px;stroke-width:0.264583"
       d="m 42.832383,68.534726 q -0.171813,0.0099 -0.528654,0.02974 -0.03965,0.03965 -0.03965,0.237887 0,0.02974 -0.01322,0.09912 0,0.06938 0,0.09912 0,0.178415 0.03965,0.564979 0.03965,0.376653 0.03965,0.574891 v 0.118943 q -0.06608,0.04956 -0.06608,0.08921 0,0.02974 0,0.08921 0.01322,0.04956 0.01322,0.07929 0,0.109031 -0.03965,0.30727 -0.02643,0.198238 -0.02643,0.287445 -0.02643,0.04956 -0.06609,0.138767 -0.01322,-0.02974 -0.01322,0.07929 0,0.03965 0.06609,0.04956 0.383274,0.03965 0.528654,0.03965 0.0793,0 0.0793,0.03965 v 0.07929 q -0.105726,0.03965 -0.370058,0.03965 -0.05286,0 -0.158596,-0.01982 -0.09252,-0.02974 -0.145381,-0.02974 -0.02643,0 -0.05286,0.0099 -0.03965,0.227974 -0.185029,0.545155 -0.05286,0.0099 -0.118947,-0.01982 -0.02643,0 -0.07929,-0.05947 -0.02643,-0.25771 -0.02643,-0.218063 0,-0.09912 0.05286,-0.168502 0,-0.02974 -0.118947,-0.06938 -0.05286,0 -0.158597,0 -0.409706,-0.118943 -1.215905,-0.396476 -0.171812,-0.128855 -0.568302,-0.346917 -0.118948,-0.148679 -0.185029,-0.733482 0,-0.02974 -0.02643,-0.09912 -0.02643,-0.07929 -0.02643,-0.118943 0,-0.158591 0.198244,-0.40639 0.198246,-0.247797 0.224679,-0.376653 0.118947,-0.05947 0.303976,-0.198238 0,-0.02974 0.05286,-0.06938 0.06608,-0.03965 0.06608,-0.06938 0.43614,-0.138767 1.374502,-0.337006 0.224677,-0.02974 0.224677,-0.09912 0,0 0,-0.01982 0,-0.36674 0.211462,-0.604627 0.02643,-0.03965 0.14538,-0.03965 0.105726,0 0.105726,0.07929 0,0.02974 -0.02643,0.07929 -0.02643,0.03965 -0.02643,0.06938 0,0.04956 0.02643,0.158591 0.02643,0.109031 0.02643,0.168503 0,0.07929 -0.05286,0.138767 0.03965,0.0099 0.0793,0.0099 0.05286,0 0.132164,-0.01982 0.09252,-0.01982 0.145379,-0.01982 0.06609,0 0.118948,0.02974 0.09252,0.198239 0.09252,0.168503 0,0.01982 -0.01322,0.03965 z m -1.030876,0.138767 q 0,-0.05947 -0.105726,-0.05947 -0.03965,0 -0.09252,0.01982 -1.506665,0.505508 -1.506665,1.298462 v 0.307269 q 0,0.109031 0.118948,0.277533 0.105726,0.128856 0.211462,0.25771 0.09252,0.05947 0.277543,0.208151 0.39649,0.168502 0.68725,0.247798 0.06608,0.02974 0.132164,0.128855 0.05286,0 0.158596,-0.01982 -0.02643,-0.01982 -0.02643,-0.04956 0,-0.03965 0.02643,-0.09912 0.03965,-0.06938 0.03965,-0.09912 0,-0.01982 -0.01322,-0.04956 -0.0793,-0.04956 -0.0793,-0.208151 0,-0.01982 0.01322,-0.06938 0.01321,-0.04956 0.01321,-0.07929 0,-0.04956 -0.01321,-0.138767 -0.01322,-0.09912 -0.01322,-0.148679 0,-0.109031 0.05286,-0.188326 0,0.02974 0,-0.208151 0,-0.128855 -0.05286,-0.20815 0.02643,-0.02974 0.02643,-0.07929 0,-0.02974 0,-0.07929 -0.01321,-0.05947 -0.01321,-0.07929 0,-0.06938 0.05286,-0.118943 0,-0.03965 0,-0.109031 -0.01322,-0.07929 -0.01322,-0.118943 0.118948,-0.148679 0.118948,-0.535244 z" />
    <path
       id="path845"
       style="font-style:normal;font-variant:normal;font-weight:normal;font-stretch:normal;font-size:11.4455px;line-height:1.25;font-family:'Poseidon AOE';-inkscape-font-specification:'Poseidon AOE, Normal';font-variant-ligatures:normal;font-variant-caps:normal;font-variant-numeric:normal;font-variant-east-asian:normal;letter-spacing:0px;word-spacing:0px;stroke-width:0.264583"
       d="m 47.396569,69.040234 q -0.03965,0.09912 -0.03965,0.218062 0,0.05947 0.01321,0.188326 0.01322,0.118943 0.01322,0.178415 0,0.109031 -0.03965,0.198238 -0.237895,0.723571 -0.277543,0.832602 -0.198246,0.46586 -0.489006,0.773129 -0.02643,0.0099 -0.06609,0.06938 -0.03965,0.04956 -0.105726,0.04956 -0.01322,0.0099 -0.02643,0.0099 -0.0793,0 -0.0793,-0.07929 0,-0.07929 0.237894,-0.337006 0.237895,-0.257709 0.237895,-0.446036 0,-0.118943 0.105726,-0.218063 -0.05286,-0.03965 -0.05286,-0.09912 0,-0.118943 0.02643,-0.36674 0.03965,-0.247799 0.03965,-0.376653 0,-0.327094 -0.05286,-0.545156 -0.07929,-0.04956 -0.118947,-0.158591 -0.06609,-0.168502 -0.06609,-0.188326 -0.25111,-0.416301 -0.792981,-0.416301 -0.02643,-0.01982 -0.05286,-0.01982 -0.105727,0 -0.211462,0.04956 -0.105726,0.04956 -0.145379,0.05947 -0.01322,-0.01982 -0.02643,-0.0099 h -0.03965 q -0.0793,0.01982 -0.25111,0.138767 -0.06609,0.04956 -0.198246,0.15859 -0.198245,0.158591 -0.54187,0.495596 -0.0793,0.07929 -0.105726,0.25771 -0.02643,0.218062 -0.06609,0.277534 -0.02643,0.04956 -0.09252,0.148678 -0.01322,0.436125 -0.01322,0.416301 0,0.109032 0.05286,0.327094 0.06609,0.20815 0.06609,0.317181 0,0.02974 -0.01322,0.07929 0,0.05947 0,0.07929 0,0.128855 0.05286,0.188326 0.01322,0.118943 0.118948,0.287446 0.01321,0.01982 0.01321,0.03965 0,0.01982 -0.03965,0.05947 -0.02643,0.03965 -0.02643,0.05947 0,0.01982 0.02643,0.04956 v 0.01982 q 0,-0.01982 -0.06608,0.06938 -0.02643,0.0099 -0.05286,0.0099 -0.02643,0 -0.06608,-0.02974 -0.03965,-0.02974 -0.06609,-0.03965 -0.422923,-1.001104 -0.555087,-1.397581 -0.277543,-0.792954 -0.330408,-1.427317 v 0 q -0.01322,-0.247797 -0.118948,-0.713658 0.01322,-0.02974 0.01322,-0.20815 0,0 0.01321,-0.04956 0.02643,-0.04956 0.09252,-0.04956 0.02643,0 0.06608,0.01982 0.05286,0.01982 0.0793,0.01982 0.06608,0.148678 0.06608,0.09912 0,0.01982 -0.01322,0.05947 -0.01322,0.02974 -0.01322,0.04956 0,0.02974 0.01322,0.08921 0.01322,0.05947 0.01322,0.08921 0,0.04956 -0.02643,0.08921 0.03965,0.07929 0.132164,0.247797 0.05286,0.168503 0.118946,0.51542 0.03965,0.118943 0.185029,0.277534 0.07929,-0.455948 0.356842,-0.832601 0.118947,-0.158591 0.660818,-0.713659 0.185029,-0.08921 0.370058,-0.168502 0.251111,-0.09912 0.396491,-0.109031 0.06609,-0.01982 0.132164,-0.01982 0.03965,0 0.132163,0.01982 0.09252,0.0099 0.14538,0.0099 0.05286,0 0.118947,-0.01982 0.06609,0.04956 0.237895,0.02974 0.132163,0.07929 0.383274,0.218063 0.05286,0.02974 0.158596,0.07929 0.105726,0.04956 0.171813,0.198239 0.06609,0.148679 0.132164,0.198238 0.06608,0.109032 0.07929,0.327094 0.02643,0.20815 0.06609,0.297358 z" />
    <path
       id="path847"
       style="font-style:normal;font-variant:normal;font-weight:normal;font-stretch:normal;font-size:11.4455px;line-height:1.25;font-family:'Poseidon AOE';-inkscape-font-specification:'Poseidon AOE, Normal';font-variant-ligatures:normal;font-variant-caps:normal;font-variant-numeric:normal;font-variant-east-asian:normal;letter-spacing:0px;word-spacing:0px;stroke-width:0.264583"
       d="m 50.696116,71.865131 q -0.06609,0.09912 -0.224679,0.09912 -0.224677,0 -0.647601,-0.04956 -0.409707,-0.05947 -0.621169,-0.05947 -0.105726,0 -0.264327,-0.08921 -0.14538,-0.08921 -0.251111,-0.08921 -0.01322,-0.04956 -0.06609,-0.118943 -0.105726,-0.05947 -0.29076,-0.168503 -0.185029,-0.118943 -0.462573,-0.426213 -0.01322,-0.06938 -0.09252,-0.188326 v -0.05947 q 0.01322,-0.07929 -0.02643,-0.227974 -0.03965,-0.158591 -0.03965,-0.237886 V 70.0909 q 0,-0.07929 0.118948,-0.693834 0.02643,-0.07929 0.105726,-0.208151 0.03965,-0.109031 0.356841,-0.396477 0.370058,-0.346917 0.978012,-0.574891 0.224677,-0.07929 0.647601,-0.247798 l 0.211461,0.01982 q 0.01322,0.01982 0.01322,0.03965 0,0 -0.145381,0.128855 -0.132163,0.04956 -0.383273,0.148679 -0.118948,0.06938 -0.343626,0.247798 l -0.198246,0.03964 q -0.14538,0.06938 -0.356842,0.247799 -0.105726,0.07929 -0.158596,0.227974 -0.06609,0.218062 -0.09252,0.25771 0.01321,0.04956 0.01321,0.09912 0,0.08921 -0.05286,0.25771 -0.03965,0.168503 -0.03965,0.25771 0,0.109031 0.06608,0.337005 0.07929,0.227974 0.07929,0.337005 0,0.09912 0.105726,0.237886 0.105726,0.138767 0.118948,0.188327 0.317192,0.287445 0.753333,0.485684 0.105726,0.04956 0.330408,0.118943 0.198246,0.0099 0.555087,0.06938 0.02643,-0.02974 0.09252,-0.02974 l 0.05286,0.0099 q 0.158596,0.04956 0.158596,0.168502 z" />
    <path
       id="path849"
       style="font-style:normal;font-variant:normal;font-weight:normal;font-stretch:normal;font-size:11.4455px;line-height:1.25;font-family:'Poseidon AOE';-inkscape-font-specification:'Poseidon AOE, Normal';font-variant-ligatures:normal;font-variant-caps:normal;font-variant-numeric:normal;font-variant-east-asian:normal;letter-spacing:0px;word-spacing:0px;stroke-width:0.264583"
       d="m 53.721628,71.617333 v 0.03965 q 0.01322,0.128855 -0.237895,0.128855 -0.185029,0 -0.224678,-0.07929 -0.105727,-0.01982 -0.224678,-0.01982 -0.06608,0 -0.303977,0.01982 -0.145379,-0.06938 -0.489004,-0.09912 -0.343627,-0.02974 -0.489006,-0.09912 -0.03965,-0.05947 -0.198246,-0.09912 -0.145379,-0.03965 -0.198245,-0.109031 -0.03965,-0.07929 -0.211461,-0.15859 -0.158597,-0.08921 -0.198246,-0.168503 -0.14538,-0.25771 -0.343626,-0.802865 -0.05286,-0.277534 -0.05286,-0.208151 0,-0.02974 0,-0.04956 h 0.01322 q -0.02643,-0.09912 -0.01322,-0.138767 -0.07929,-0.06938 -0.264327,-0.06938 -0.185029,0 -0.264327,-0.02974 -0.05286,-0.08921 -0.05286,-0.07929 0,0 0,-0.01982 0.05286,-0.02974 0.03965,-0.04956 0.06609,-0.0099 0.277543,-0.07929 0.171813,-0.04956 0.29076,-0.02974 0.132163,-0.168503 0.198246,-0.337005 0.01322,-0.03965 0.03965,-0.118943 0.09252,-0.09912 0.237894,-0.267622 0.0793,-0.09912 0.356842,-0.267622 0.277543,-0.178414 0.449357,-0.247798 0.502221,-0.198238 1.083741,-0.237886 0.105726,0.04956 0.105726,0.05947 0,0.0099 -0.01322,0.01982 -0.39649,0.148679 -1.057309,0.436124 -0.264327,0.138767 -0.634385,0.614539 -0.05286,0.06938 -0.05286,0.138767 0,0.03965 0.01322,0.07929 1.823857,0.02974 1.969238,0.02974 0.09252,0 0.185029,0.05947 v 0.08921 q -0.02643,-0.0099 -0.03965,0.01982 0,0.02974 -0.01321,0.02974 -0.132164,0.0099 -0.409708,0.04956 -0.991227,0.188327 -1.123391,0.188327 -0.06609,0 -0.118946,0 v -0.0099 q -0.03965,0.0099 -0.09252,0.0099 -0.25111,0 -0.211461,0 v -0.0099 q -0.05286,-0.0099 -0.09252,-0.0099 -0.06608,0 -0.07929,0.02974 0,0.0099 0,0.02974 0,0.02974 -0.03965,0.07929 -0.02643,0.03965 -0.02643,0.06938 0.01322,0.03965 0.0793,0.109032 -0.01322,0.01982 -0.01322,0.03965 0,0.277534 0.303976,0.753306 0.09252,0.138767 0.43614,0.376653 0.237895,0.05947 0.7269,0.178414 0.05286,0.04956 0.330409,0.118943 0.277544,0.05947 0.370058,0.05947 0.02643,0 0.06608,-0.0099 0.05286,-0.0099 0.0793,-0.0099 0.07929,0 0.132164,0.05947 z" />
    <path
       id="path853"
       style="font-style:normal;font-variant:normal;font-weight:normal;font-stretch:normal;font-size:11.4455px;line-height:1.25;font-family:'Poseidon AOE';-inkscape-font-specification:'Poseidon AOE, Normal';font-variant-ligatures:normal;font-variant-caps:normal;font-variant-numeric:normal;font-variant-east-asian:normal;letter-spacing:0px;word-spacing:0px;stroke-width:0.264583"
       d="m 62.952015,69.724156 q -0.02643,0.287446 -0.171813,0.812777 -0.105726,0.227975 -0.409706,0.594716 -0.158597,0.128855 -0.449356,0.485684 -0.264328,0.317182 -0.475789,0.455948 -0.02643,0 -0.05286,0 -0.132164,0 -0.132164,-0.08921 0,-0.01982 0,-0.04956 0,-0.03965 0,-0.04956 0.211462,-0.128854 0.528654,-0.436124 0.01322,-0.138767 0.264328,-0.436125 0.25111,-0.307269 0.25111,-0.584803 0,-0.02974 0,-0.08921 0,-0.06938 0,-0.09912 0,-0.168503 0.06608,-0.267622 -0.05286,-0.158591 -0.211461,-0.455948 0,-0.08921 -0.145381,-0.188327 -0.145379,-0.09912 -0.171812,-0.158591 -0.14538,-0.148678 -0.515438,-0.406388 -0.118947,-0.05947 -0.330409,-0.376653 -0.02643,-0.03965 -0.09252,-0.118943 -0.02643,-0.03965 -0.118947,-0.267622 -0.09252,-0.237886 -0.09252,-0.277534 0,-0.02974 0.02643,-0.128855 0.01322,-0.06938 0,-0.118943 0.05286,-0.178414 0.237894,-0.495596 0.02643,-0.08921 0.132164,-0.178414 0.185029,-0.148679 0.185029,-0.148679 -0.01322,-0.07929 -0.01322,-0.04956 0,-0.0099 0.317193,-0.287446 0.118946,-0.09912 1.163039,-0.584803 l 0.05286,0.03965 q 0,0.01982 0,0.03965 0,0.04956 -0.05286,0.09912 -0.09252,0.05947 -0.105726,0.07929 -0.198246,0.128854 -0.594737,0.396477 -0.105726,0.04956 -0.303975,0.15859 -0.105727,0.08921 -0.251112,0.396477 -0.171812,0.396477 -0.211461,0.455949 -0.01322,0.118943 0.03965,0.327092 0,0.109032 0.158596,0.247799 0.171812,0.138767 0.198245,0.198238 0.330409,0.25771 0.872279,0.812778 0.132164,0.25771 0.409708,0.743393 z" />
    <path
       id="path855"
       style="font-style:normal;font-variant:normal;font-weight:normal;font-stretch:normal;font-size:11.4455px;line-height:1.25;font-family:'Poseidon AOE';-inkscape-font-specification:'Poseidon AOE, Normal';font-variant-ligatures:normal;font-variant-caps:normal;font-variant-numeric:normal;font-variant-east-asian:normal;letter-spacing:0px;word-spacing:0px;stroke-width:0.264583"
       d="m 66.989613,71.617333 v 0.03965 q 0.01322,0.128855 -0.237894,0.128855 -0.185029,0 -0.224678,-0.07929 -0.105726,-0.01982 -0.224678,-0.01982 -0.06609,0 -0.303976,0.01982 -0.14538,-0.06938 -0.489006,-0.09912 -0.343625,-0.02974 -0.489005,-0.09912 -0.03965,-0.05947 -0.198245,-0.09912 -0.145381,-0.03965 -0.198246,-0.109031 -0.03965,-0.07929 -0.211462,-0.15859 -0.158596,-0.08921 -0.198245,-0.168503 -0.14538,-0.25771 -0.343625,-0.802865 -0.05286,-0.277534 -0.05286,-0.208151 0,-0.02974 0,-0.04956 h 0.01322 q -0.02643,-0.09912 -0.01322,-0.138767 -0.0793,-0.06938 -0.264327,-0.06938 -0.185029,0 -0.264327,-0.02974 -0.05286,-0.08921 -0.05286,-0.07929 0,0 0,-0.01982 0.05286,-0.02974 0.03965,-0.04956 0.06608,-0.0099 0.277544,-0.07929 0.171812,-0.04956 0.29076,-0.02974 0.132163,-0.168503 0.198244,-0.337005 0.01322,-0.03965 0.03965,-0.118943 0.09252,-0.09912 0.237894,-0.267622 0.07929,-0.09912 0.356841,-0.267622 0.277544,-0.178414 0.449356,-0.247798 0.502222,-0.198238 1.083743,-0.237886 0.105726,0.04956 0.105726,0.05947 0,0.0099 -0.01322,0.01982 -0.39649,0.148679 -1.057308,0.436124 -0.264327,0.138767 -0.634385,0.614539 -0.05286,0.06938 -0.05286,0.138767 0,0.03965 0.01322,0.07929 1.823858,0.02974 1.969238,0.02974 0.09252,0 0.185029,0.05947 v 0.08921 q -0.02643,-0.0099 -0.03965,0.01982 0,0.02974 -0.01322,0.02974 -0.132163,0.0099 -0.409706,0.04956 -0.991228,0.188327 -1.123391,0.188327 -0.06609,0 -0.118948,0 v -0.0099 q -0.03965,0.0099 -0.09252,0.0099 -0.251112,0 -0.211462,0 v -0.0099 q -0.05286,-0.0099 -0.09252,-0.0099 -0.06609,0 -0.0793,0.02974 0,0.0099 0,0.02974 0,0.02974 -0.03965,0.07929 -0.02643,0.03965 -0.02643,0.06938 0.01322,0.03965 0.0793,0.109032 -0.01322,0.01982 -0.01322,0.03965 0,0.277534 0.303976,0.753306 0.09252,0.138767 0.43614,0.376653 0.237894,0.05947 0.7269,0.178414 0.05286,0.04956 0.330409,0.118943 0.277543,0.05947 0.370058,0.05947 0.02643,0 0.06609,-0.0099 0.05286,-0.0099 0.07929,-0.0099 0.07929,0 0.132163,0.05947 z" />
    <path
       id="path857"
       style="font-style:normal;font-variant:normal;font-weight:normal;font-stretch:normal;font-size:11.4455px;line-height:1.25;font-family:'Poseidon AOE';-inkscape-font-specification:'Poseidon AOE, Normal';font-variant-ligatures:normal;font-variant-caps:normal;font-variant-numeric:normal;font-variant-east-asian:normal;letter-spacing:0px;word-spacing:0px;stroke-width:0.264583"
       d="m 69.556164,66.948819 q 0,0.01982 -0.01322,0.02974 0.01322,0.0099 0.01322,0.01982 0,0.02974 -0.02643,0.05947 -0.422923,0.03965 -1.163039,0.168502 -0.118947,0.02974 -0.185029,0.02974 -0.03965,0 -0.118947,0 -0.07929,-0.0099 -0.118947,-0.0099 -0.118947,0 -0.198245,0.04956 0,0.03965 0,0.08921 0,0.09912 0.02643,0.317181 0.03965,0.208151 0.03965,0.30727 0,0.04956 -0.02643,0.168503 -0.01322,0.118943 -0.01322,0.188326 0,0.158591 0.03965,0.475773 0.03965,0.307269 0.03965,0.455948 0,0.02974 0,0.07929 0,0.03965 0,0.06938 0,0.138766 0.145379,0.911896 0.05286,0.386566 0.211462,1.100224 0.02643,0.05947 0.05286,0.178414 0.03965,0.109031 0.105726,0.356829 -0.06609,0.07929 -0.105726,0.08921 -0.02643,0 -0.03965,0 -0.03965,0 -0.118948,-0.08921 0,-0.01982 -0.02643,-0.07929 -0.02643,-0.05947 -0.02643,-0.08921 v -0.01982 q 0.01322,-0.01982 0.01322,-0.04956 v -0.05947 q -0.09252,-0.02974 -0.158596,-0.227974 l -0.224679,-0.77313 q -0.02643,-0.128855 -0.105726,-0.366741 -0.03965,-0.05947 -0.0793,-0.168503 -0.03965,-0.168502 -0.185029,-0.475772 v -0.04956 q 0.01322,-0.138767 -0.09252,-0.485684 0.01321,-0.01982 0.02643,-0.04956 0.02643,-0.03965 0.02643,-0.05947 0,-0.02974 -0.03965,-0.04956 -0.06608,-0.36674 -0.09252,-1.754409 -0.185029,-0.04956 -0.58152,-0.03965 -0.383275,0 -0.568304,-0.04956 -0.05286,-0.02974 -0.118946,-0.128854 0,-0.01982 0,-0.02974 0,-0.01982 0.03965,-0.03965 0.03965,-0.01982 0.05286,-0.03965 0.383275,-0.03965 1.136607,-0.138767 0.09252,-0.0099 0.185029,-0.08921 -0.01322,0.03965 -0.01322,-0.109031 0,-0.763218 0.25111,-1.080399 h 0.03965 q 0.02643,0 0.09252,0.05947 0.06608,0.277534 0.06608,0.664098 0,0.08921 -0.01322,0.455948 0,0.01982 0,0.03965 0,0.06938 0.07929,0.06938 0.02643,0 0.832631,0.02974 0.185029,0.06938 0.515438,0.06938 0.03965,0 0.118948,-0.01982 0.09252,-0.02974 0.145379,-0.02974 0.02643,0 0.05286,0 0.01322,0.01982 0.05286,0.05947 0.05286,0.03965 0.05286,0.05947 z" />
    <path
       id="path859"
       style="font-style:normal;font-variant:normal;font-weight:normal;font-stretch:normal;font-size:11.4455px;line-height:1.25;font-family:'Poseidon AOE';-inkscape-font-specification:'Poseidon AOE, Normal';font-variant-ligatures:normal;font-variant-caps:normal;font-variant-numeric:normal;font-variant-east-asian:normal;letter-spacing:0px;word-spacing:0px;stroke-width:0.264583"
       d="m 73.544309,66.948819 q 0,0.01982 -0.01322,0.02974 0.01322,0.0099 0.01322,0.01982 0,0.02974 -0.02643,0.05947 -0.422923,0.03965 -1.163039,0.168502 -0.118948,0.02974 -0.185029,0.02974 -0.03965,0 -0.118948,0 -0.0793,-0.0099 -0.118947,-0.0099 -0.118948,0 -0.198246,0.04956 0,0.03965 0,0.08921 0,0.09912 0.02643,0.317181 0.03965,0.208151 0.03965,0.30727 0,0.04956 -0.02643,0.168503 -0.01322,0.118943 -0.01322,0.188326 0,0.158591 0.03965,0.475773 0.03965,0.307269 0.03965,0.455948 0,0.02974 0,0.07929 0,0.03965 0,0.06938 0,0.138766 0.145381,0.911896 0.05286,0.386566 0.211461,1.100224 0.02643,0.05947 0.05286,0.178414 0.03965,0.109031 0.105727,0.356829 -0.06609,0.07929 -0.105727,0.08921 -0.02643,0 -0.03965,0 -0.03965,0 -0.118946,-0.08921 0,-0.01982 -0.02643,-0.07929 -0.02643,-0.05947 -0.02643,-0.08921 v -0.01982 q 0.01322,-0.01982 0.01322,-0.04956 v -0.05947 q -0.09252,-0.02974 -0.158596,-0.227974 l -0.224678,-0.77313 q -0.02643,-0.128855 -0.105726,-0.366741 -0.03965,-0.05947 -0.0793,-0.168503 -0.03965,-0.168502 -0.185029,-0.475772 v -0.04956 q 0.01321,-0.138767 -0.09252,-0.485684 0.01322,-0.01982 0.02643,-0.04956 0.02643,-0.03965 0.02643,-0.05947 0,-0.02974 -0.03965,-0.04956 -0.06608,-0.36674 -0.09252,-1.754409 -0.185029,-0.04956 -0.58152,-0.03965 -0.383274,0 -0.568303,-0.04956 -0.05286,-0.02974 -0.118947,-0.128854 0,-0.01982 0,-0.02974 0,-0.01982 0.03965,-0.03965 0.03965,-0.01982 0.05286,-0.03965 0.383274,-0.03965 1.136607,-0.138767 0.09252,-0.0099 0.185029,-0.08921 -0.01322,0.03965 -0.01322,-0.109031 0,-0.763218 0.251111,-1.080399 h 0.03965 q 0.02643,0 0.09252,0.05947 0.06608,0.277534 0.06608,0.664098 0,0.08921 -0.01321,0.455948 0,0.01982 0,0.03965 0,0.06938 0.0793,0.06938 0.02643,0 0.83263,0.02974 0.185029,0.06938 0.515439,0.06938 0.03965,0 0.118946,-0.01982 0.09252,-0.02974 0.145381,-0.02974 0.02643,0 0.05286,0 0.01322,0.01982 0.05286,0.05947 0.05286,0.03965 0.05286,0.05947 z" />
    <path
       id="path861"
       style="font-style:normal;font-variant:normal;font-weight:normal;font-stretch:normal;font-size:11.4455px;line-height:1.25;font-family:'Poseidon AOE';-inkscape-font-specification:'Poseidon AOE, Normal';font-variant-ligatures:normal;font-variant-caps:normal;font-variant-numeric:normal;font-variant-east-asian:normal;letter-spacing:0px;word-spacing:0px;stroke-width:0.264583"
       d="m 74.588399,66.136041 q -0.01321,0.109032 -0.06609,0.327094 -0.07929,0.09912 -0.198246,0.317181 -0.185029,0.05947 -0.158596,0.05947 -0.02643,0 -0.06608,-0.01982 -0.02643,-0.02974 -0.118948,-0.138767 -0.0793,-0.07929 -0.0793,-0.15859 0,-0.04956 0.01322,-0.138767 0.02643,-0.09912 0.02643,-0.158591 0,-0.06938 0.105726,-0.148679 0.06609,-0.0099 0.171812,-0.03965 0.145381,0.01982 0.211462,0.02974 0.06609,0.0099 0.158596,0.06938 z m -0.09252,2.210359 q -0.132164,0.654186 -0.409708,1.96256 -0.06608,0.317181 -0.237894,0.93172 -0.02643,0.118943 -0.14538,0.277534 l -0.03965,0.0099 q -0.118946,0 -0.118946,-0.06939 0,-0.188327 0.105726,-0.77313 0.25111,-1.476876 0.25111,-1.883264 0,-0.138767 -0.01322,-0.267623 -0.05286,-0.03965 -0.0793,-0.148678 -0.02643,-0.109032 -0.09252,-0.168503 -0.03965,-0.01982 -0.277543,-0.09912 -0.171813,-0.05947 -0.171813,-0.128855 0,-0.08921 0.09252,-0.128855 h 0.06608 q 0.09252,0.0099 0.251112,-0.0099 0.158596,-0.01982 0.224677,-0.01982 0.409708,0 0.475789,0.05947 0.07929,0.05947 0.09252,0.15859 -0.03965,0.04956 -0.03965,0.07929 0,0 0,0.01982 -0.01321,0.07929 0.06609,0.198239 z" />
    <path
       id="path863"
       style="font-style:normal;font-variant:normal;font-weight:normal;font-stretch:normal;font-size:11.4455px;line-height:1.25;font-family:'Poseidon AOE';-inkscape-font-specification:'Poseidon AOE, Normal';font-variant-ligatures:normal;font-variant-caps:normal;font-variant-numeric:normal;font-variant-east-asian:normal;letter-spacing:0px;word-spacing:0px;stroke-width:0.264583"
       d="m 79.146801,69.040234 q -0.03965,0.09912 -0.03965,0.218062 0,0.05947 0.01321,0.188326 0.01322,0.118943 0.01322,0.178415 0,0.109031 -0.03965,0.198238 -0.237895,0.723571 -0.277543,0.832602 -0.198246,0.46586 -0.489006,0.773129 -0.02643,0.0099 -0.06609,0.06938 -0.03965,0.04956 -0.105726,0.04956 -0.01322,0.0099 -0.02643,0.0099 -0.0793,0 -0.0793,-0.07929 0,-0.07929 0.237894,-0.337006 0.237895,-0.257709 0.237895,-0.446036 0,-0.118943 0.105726,-0.218063 -0.05286,-0.03965 -0.05286,-0.09912 0,-0.118943 0.02643,-0.36674 0.03965,-0.247799 0.03965,-0.376653 0,-0.327094 -0.05286,-0.545156 -0.07929,-0.04956 -0.118946,-0.158591 -0.06609,-0.168502 -0.06609,-0.188326 -0.25111,-0.416301 -0.792981,-0.416301 -0.02643,-0.01982 -0.05286,-0.01982 -0.105727,0 -0.211462,0.04956 -0.105726,0.04956 -0.145379,0.05947 -0.01322,-0.01982 -0.02643,-0.0099 h -0.03965 q -0.0793,0.01982 -0.25111,0.138767 -0.06609,0.04956 -0.198246,0.15859 -0.198245,0.158591 -0.54187,0.495596 -0.0793,0.07929 -0.105727,0.25771 -0.02643,0.218062 -0.06608,0.277534 -0.02643,0.04956 -0.09252,0.148678 -0.01322,0.436125 -0.01322,0.416301 0,0.109032 0.05286,0.327094 0.06609,0.20815 0.06609,0.317181 0,0.02974 -0.01322,0.07929 0,0.05947 0,0.07929 0,0.128855 0.05286,0.188326 0.01322,0.118943 0.118948,0.287446 0.01321,0.01982 0.01321,0.03965 0,0.01982 -0.03965,0.05947 -0.02643,0.03965 -0.02643,0.05947 0,0.01982 0.02643,0.04956 v 0.01982 q 0,-0.01982 -0.06609,0.06938 -0.02643,0.0099 -0.05286,0.0099 -0.02643,0 -0.06608,-0.02974 -0.03965,-0.02974 -0.06609,-0.03965 -0.422923,-1.001104 -0.555087,-1.397581 -0.277543,-0.792954 -0.330408,-1.427317 v 0 q -0.01322,-0.247797 -0.118948,-0.713658 0.01322,-0.02974 0.01322,-0.20815 0,0 0.01321,-0.04956 0.02643,-0.04956 0.09252,-0.04956 0.02643,0 0.06608,0.01982 0.05286,0.01982 0.07929,0.01982 0.06609,0.148678 0.06609,0.09912 0,0.01982 -0.01322,0.05947 -0.01321,0.02974 -0.01321,0.04956 0,0.02974 0.01321,0.08921 0.01322,0.05947 0.01322,0.08921 0,0.04956 -0.02643,0.08921 0.03965,0.07929 0.132164,0.247797 0.05286,0.168503 0.118946,0.51542 0.03965,0.118943 0.185029,0.277534 0.07929,-0.455948 0.356842,-0.832601 0.118947,-0.158591 0.660818,-0.713659 0.185029,-0.08921 0.370058,-0.168502 0.251111,-0.09912 0.396491,-0.109031 0.06609,-0.01982 0.132164,-0.01982 0.03965,0 0.132163,0.01982 0.09252,0.0099 0.14538,0.0099 0.05286,0 0.118947,-0.01982 0.06609,0.04956 0.237895,0.02974 0.132163,0.07929 0.383274,0.218063 0.05286,0.02974 0.158596,0.07929 0.105726,0.04956 0.171813,0.198239 0.06609,0.148679 0.132164,0.198238 0.06608,0.109032 0.07929,0.327094 0.02643,0.20815 0.06609,0.297358 z" />
    <path
       id="path865"
       style="font-style:normal;font-variant:normal;font-weight:normal;font-stretch:normal;font-size:11.4455px;line-height:1.25;font-family:'Poseidon AOE';-inkscape-font-specification:'Poseidon AOE, Normal';font-variant-ligatures:normal;font-variant-caps:normal;font-variant-numeric:normal;font-variant-east-asian:normal;letter-spacing:0px;word-spacing:0px;stroke-width:0.264583"
       d="m 83.212897,69.53583 q 0,0.188326 -0.264327,0.753306 -0.171814,0.168502 -0.568304,0.46586 0.330409,0.664099 0.383275,0.911896 0,0.06938 0.02643,0.208151 0.02643,0.138767 0.09252,0.406388 0.05286,0.03965 0.03965,0.04956 0.02643,0.317182 0.02643,0.426212 0,0.168503 -0.02643,0.297358 -0.06608,0.118943 -0.211462,0.356829 -0.06609,0.118943 -0.211462,0.227975 -0.211462,0.15859 -0.251111,0.198238 -0.264327,0.118943 -0.528655,0.237886 -0.330408,0.148678 -0.54187,0.168502 -0.330409,0.04956 -0.370058,0.04956 -0.251111,0 -0.859063,-0.168503 -0.317193,-0.08921 -0.515438,-0.247798 -0.158596,-0.118943 -0.303977,-0.247798 -0.158596,-0.128855 -0.171812,-0.297358 0,-0.03965 -0.01322,-0.128854 -0.02643,-0.07929 -0.02643,-0.118943 0,-0.109032 0.105727,-0.267623 0.158596,-0.227973 0.171813,-0.257709 0.25111,-0.138767 0.436139,-0.327093 0.105726,-0.06938 0.356842,-0.188327 0.594736,-0.168502 0.713683,-0.168502 0.118947,0 0.317193,-0.01982 0.211462,-0.01982 0.317193,-0.01982 0.25111,0 1.017658,0.138766 -0.02643,-0.02974 -0.198244,-0.4163 -0.03965,-0.04956 -0.0793,-0.138767 -0.03965,-0.168503 -0.224679,-0.535244 -0.09252,0.01982 -0.25111,0.04956 -0.317192,-0.0099 -0.885496,-0.07929 -0.409707,-0.118943 -0.674034,-0.36674 -0.0793,-0.01982 -0.171813,-0.09912 -0.0793,-0.08921 -0.132164,-0.118943 -0.185029,-0.555067 -0.185029,-0.733482 0,-0.346917 0.105727,-0.535243 0.06608,-0.03965 0.118947,-0.14868 0.05286,-0.10903 0.158597,-0.168502 0.145379,-0.118943 0.489004,-0.30727 0.33041,-0.148678 0.991228,-0.148678 0.462571,0 0.674033,0.07929 0.09252,0.05947 0.33041,0.138767 0.409706,0.267621 0.502221,0.436124 0.29076,0.535244 0.29076,0.654187 z M 82.61816,69.5953 q 0.01322,-0.227975 -0.118947,-0.594715 -0.14538,-0.118943 -0.409707,-0.366742 -0.14538,-0.02974 -0.436139,-0.08921 -0.0793,-0.01982 -0.198246,-0.03964 -0.118947,-0.01982 -0.343626,-0.03965 -0.171812,0.03965 -0.198244,0.03965 -0.224679,0.08921 -0.541872,0.297357 -0.05286,0.04956 -0.118946,0.138767 -0.03965,0.03965 -0.05286,0.128854 0,0.08921 -0.05286,0.128856 0,0.03965 -0.02643,0.138767 -0.01322,0.09912 -0.01322,0.148678 0,0.08921 0.03965,0.158591 0,0.188327 0.224677,0.327094 0.145381,0.20815 0.43614,0.267621 0.02643,0.0099 0.224678,0.06938 0.211462,0.05947 0.237894,0.05947 0.03965,0 0.158597,-0.02974 0.118947,-0.01982 0.171813,0 0,-0.08921 -0.06609,-0.267622 -0.05286,-0.188326 -0.05286,-0.287446 0,-0.09912 0.09252,-0.10903 0.01322,-0.01982 0.05286,-0.01982 0.06609,0 0.09252,0.06938 0.03965,0.05947 0.06608,0.109032 0.05286,0.08921 0.29076,0.346917 0.02643,0.02974 0.05286,0.02974 0.01322,0 0.05286,-0.04956 0.03965,-0.05947 0.09252,-0.04956 0.07929,-0.03965 0.14538,-0.148679 0.0793,-0.109031 0.145379,-0.138767 0,-0.07929 0.05286,-0.227974 z m -0.118947,2.924016 q 0,-0.188326 -0.14538,-0.227974 -0.224678,-0.168503 -0.489005,-0.188327 -0.03965,0.0099 -0.07929,0.0099 -0.03965,0 -0.145381,-0.02974 -0.09252,-0.02974 -0.145379,-0.0099 -0.03965,-0.02974 -0.0793,-0.02974 -0.02643,0.0099 -0.03965,0.01982 -0.330408,0.04956 -0.647601,0.09912 -0.396491,0.06938 -0.607952,0.178415 -0.03965,0.01982 -0.317193,0.297358 -0.01322,0.07929 -0.105726,0.20815 v 0.04956 q -0.02643,0.208151 0.105726,0.366742 0.132164,0.15859 0.277543,0.317181 l 0.145381,0.0099 q 0.03965,0.06938 0.03965,0.08921 0.224678,0.08921 0.43614,0.08921 0.05286,0 0.145379,-0.01982 0.09252,-0.0099 0.132164,-0.0099 0.0793,0 0.132163,0.01982 0.158597,0.0099 0.475789,-0.08921 0.01322,-0.0099 0.660818,-0.406388 0.03965,-0.09912 0.211462,-0.227975 0.03965,-0.09912 0.03965,-0.237886 0,-0.04956 0,-0.138767 0,-0.08921 0,-0.138767 z" />
    <path
       id="path867"
       style="font-style:normal;font-variant:normal;font-weight:normal;font-stretch:normal;font-size:11.4455px;line-height:1.25;font-family:'Poseidon AOE';-inkscape-font-specification:'Poseidon AOE, Normal';font-variant-ligatures:normal;font-variant-caps:normal;font-variant-numeric:normal;font-variant-east-asian:normal;letter-spacing:0px;word-spacing:0px;stroke-width:0.264583"
       d="m 86.393289,70.527022 q 0,0.03965 -0.0793,0.366741 -0.06608,0.327093 -0.09252,0.356829 -0.118947,0.218062 -0.343625,0.525332 -0.14538,0.118943 -0.383274,0.416301 -0.02643,0.01982 -0.0793,0.01982 -0.118948,0 -0.105726,0 -0.06609,-0.0099 -0.06609,-0.109031 v -0.04956 q 0.370058,-0.317181 0.462573,-0.683923 0.01322,-0.03965 0.0793,-0.247797 0.06609,-0.158591 0.06609,-0.227975 0,-0.06938 -0.03965,-0.138767 v -0.02974 q 0.02643,-0.257709 -0.224679,-0.535243 -0.198245,-0.227975 -0.409707,-0.455949 -0.105726,-0.08921 -0.343625,-0.227974 -0.105726,-0.03965 -0.330409,-0.138767 -0.224678,-0.109031 -0.726899,-0.317181 -0.29076,-0.237886 -0.29076,-0.366741 0,-0.138767 0.03965,-0.208151 0.06609,-0.10903 0.0793,-0.138767 0.03965,-0.10903 0.277544,-0.317181 0.06608,0 0.118946,-0.05947 0.05286,-0.05947 0.09252,-0.07929 0.198245,-0.07929 0.594736,-0.20815 0.29076,-0.03965 0.87228,-0.148679 l 0.105726,0.04956 q -0.01321,0.01982 -0.01321,0.118943 -0.277544,0.07929 -0.819414,0.247797 -0.118948,0.02974 -0.198246,0.109032 -0.105727,0.109031 -0.14538,0.128854 -0.14538,0.227975 -0.14538,0.297358 0,0.04956 0.01322,0.138767 0.09252,0.09912 0.317193,0.25771 0.171812,0.04956 0.489005,0.168503 0.277544,0.109031 0.740116,0.46586 0.489005,0.386565 0.489005,1.020928 z" />
    <path
       sodipodi:nodetypes="ccccccccccccccccsccccccc"
       d="m 57.847659,71.052563 c -0.327913,0.130839 -0.616148,0.269272 -0.925145,0.356825 -0.203446,0.119243 -0.213996,0.30003 -0.251109,0.485684 0.0042,0.260061 -0.104269,0.216659 -0.23791,0.247788 -0.08523,-0.121232 -0.02259,-0.452976 -0.02645,-0.584802 -0.648953,0.06327 -1.493716,-0.08229 -1.956022,-0.44604 -0.571657,-0.468418 -0.534633,-0.961482 -0.50223,-1.803969 0.118687,-1.201918 1.804882,-1.481714 2.749011,-1.447139 0.03362,-0.791865 -0.296268,-2.303648 -0.158578,-2.309474 0.415866,-0.186091 0.781105,1.87214 0.806194,2.537453 0.07048,0.02643 0.136566,0.05947 0.198245,0.09912 0.07048,0.03304 0.114539,0.07599 0.132164,0.128855 -0.03524,0.03965 -0.0881,0.05947 -0.158596,0.05947 0.0088,0 -0.05286,-0.0066 -0.185029,-0.01982 -0.184656,1.006367 -0.275241,1.838773 -0.390569,2.695835 0.343523,-0.03938 0.62132,-0.159667 0.919221,-0.227789 0.03524,0.04625 0.05286,0.0859 0.05286,0.118943 0,0.01983 -0.02203,0.05617 -0.06608,0.109031 z m -1.149822,-2.805075 c -0.930595,-0.0219 -2.056272,0.160342 -2.088181,1.238988 -0.103706,1.811974 1.285077,1.683172 1.889931,1.615641 0.10709,-1.249873 0.09895,-1.955579 0.198236,-2.85464 z"
       style="font-style:normal;font-variant:normal;font-weight:normal;font-stretch:normal;font-size:11.4455px;line-height:1.25;font-family:'Poseidon AOE';-inkscape-font-specification:'Poseidon AOE, Normal';font-variant-ligatures:normal;font-variant-caps:normal;font-variant-numeric:normal;font-variant-east-asian:normal;letter-spacing:0px;word-spacing:0px;stroke-width:0.264583"
       id="path839-3" />
  </g>
</svg>
