<?xml version="1.0" encoding="UTF-8" standalone="no"?>
<svg
   xmlns:dc="http://purl.org/dc/elements/1.1/"
   xmlns:cc="http://creativecommons.org/ns#"
   xmlns:rdf="http://www.w3.org/1999/02/22-rdf-syntax-ns#"
   xmlns:svg="http://www.w3.org/2000/svg"
   xmlns="http://www.w3.org/2000/svg"
   xmlns:sodipodi="http://sodipodi.sourceforge.net/DTD/sodipodi-0.dtd"
   xmlns:inkscape="http://www.inkscape.org/namespaces/inkscape"
   sodipodi:docname="region_selection.svg"
   inkscape:version="1.0 (1.0+r73+1)"
   inkscape:export-ydpi="200"
   inkscape:export-xdpi="200"
   inkscape:export-filename="/home/simon/Documents/DPhil/projects/p0-FID_signal_processing/code/Python_Scripts/nmrespy/topspin/region_selection.png"
   id="svg8"
   version="1.1"
   viewBox="0 0 62.668373 8"
   height="8mm"
   width="62.668373mm">
  <defs
     id="defs2" />
  <sodipodi:namedview
     inkscape:window-maximized="1"
     inkscape:window-y="27"
     inkscape:window-x="67"
     inkscape:window-height="2105"
     inkscape:window-width="3773"
     showgrid="false"
     inkscape:document-rotation="0"
     inkscape:current-layer="layer1"
     inkscape:document-units="mm"
     inkscape:cy="119.19431"
     inkscape:cx="107.73341"
     inkscape:zoom="5.1151911"
     inkscape:pageshadow="2"
     inkscape:pageopacity="0.0"
     borderopacity="1.0"
     bordercolor="#666666"
     pagecolor="#ffffff"
     id="base" />
  <metadata
     id="metadata5">
    <rdf:RDF>
      <cc:Work
         rdf:about="">
        <dc:format>image/svg+xml</dc:format>
        <dc:type
           rdf:resource="http://purl.org/dc/dcmitype/StillImage" />
        <dc:title></dc:title>
      </cc:Work>
    </rdf:RDF>
  </metadata>
  <g
     transform="translate(-50.838892,-54.332352)"
     id="layer1"
     inkscape:groupmode="layer"
     inkscape:label="Layer 1">
    <g
       style="stroke-width:0.574471"
       transform="matrix(1.7407322,0,0,1.7407322,-37.658008,-40.245726)"
       id="g893">
      <g
         aria-label="Region Selection"
         id="text835"
         style="font-size:3.52777px;line-height:1.25;font-family:'Nimbus Roman No9 L';-inkscape-font-specification:'Nimbus Roman No9 L, Normal';letter-spacing:0px;word-spacing:0px;stroke-width:0.151995">
        <path
           d="m 56.089194,58.042787 q -0.0069,0.0689 -0.04823,0.106798 -0.04134,0.04134 -0.106798,0.04134 -0.03445,0 -0.06546,-0.01033 -0.06546,0.05168 -0.155029,0.07924 -0.08957,0.02756 -0.16881,0.05512 -0.09646,-0.0034 -0.18948,-0.01722 -0.09302,-0.01378 -0.192924,-0.0069 -0.03445,-0.02412 -0.07235,-0.03101 -0.0379,-0.0069 -0.07924,-0.01033 -0.0379,0 -0.07579,-0.01034 -0.03445,-0.01033 -0.0689,-0.04823 h -0.172254 q -0.02412,0 -0.07235,-0.02411 -0.04479,-0.02067 -0.103353,-0.04479 -0.05512,-0.02412 -0.120578,-0.04479 -0.06201,-0.02067 -0.117133,-0.02067 h -0.02067 q -0.03789,-0.03101 -0.08957,-0.04823 -0.04823,-0.01378 -0.09991,-0.02756 -0.05168,-0.01033 -0.09991,-0.02412 -0.04823,-0.01378 -0.08268,-0.0379 -0.03445,-0.02412 -0.07924,-0.04823 -0.04479,-0.02756 -0.09302,-0.02412 -0.06546,-0.0379 -0.137804,-0.06546 -0.0689,-0.02756 -0.141249,-0.05168 -0.0689,-0.02756 -0.141248,-0.05168 -0.0689,-0.02756 -0.137804,-0.06546 -0.01033,0.0034 -0.02412,0 -0.01378,-0.0034 -0.02412,-0.0034 -0.02067,0 -0.02411,0.01378 -0.02412,-0.02412 -0.05512,-0.04134 -0.02756,-0.01723 -0.05512,-0.04134 -0.01378,0.0034 -0.02756,0.0069 -0.01033,0 -0.02756,0 -0.03101,0 -0.06201,-0.0069 -0.02756,-0.0069 -0.05512,-0.01723 -0.03101,0.0689 -0.04134,0.155029 -0.01034,0.08613 -0.01723,0.179145 -0.0034,0.08957 -0.01033,0.179144 -0.0069,0.09302 -0.03101,0.16881 0.0069,0.02756 0.0069,0.05512 0,0.03101 0,0.05857 0,0.05857 0.01722,0.09302 -0.0069,0.03101 -0.01378,0.05857 -0.0034,0.02756 -0.01034,0.05512 0.0034,0.0379 0.0034,0.0689 0.0034,0.03445 0.0034,0.07235 0,0.02756 0,0.05857 0,0.03101 -0.0069,0.06201 -0.03445,0.02067 -0.0689,0.0379 -0.03445,0.02067 -0.0689,0.04823 -0.02412,-0.04479 -0.08268,-0.05168 -0.01378,0.01723 -0.02067,0.04479 -0.0034,0.03101 -0.03101,0.03101 -0.04823,-0.0379 -0.07924,-0.06201 -0.03101,-0.02412 -0.0689,-0.07235 -0.0034,-0.0069 -0.0034,-0.01723 0,-0.01722 0.0069,-0.03101 0.0069,-0.01378 0.0069,-0.02756 0,-0.04134 -0.01033,-0.07235 -0.0069,-0.04479 -0.01034,-0.08957 -0.0034,-0.04134 -0.0034,-0.08268 0,-0.05857 0.0069,-0.113688 0.01034,-0.05512 0.03445,-0.113688 0.0379,-0.09991 0.05168,-0.210151 0.01722,-0.110242 0.02412,-0.220485 0.0069,-0.113688 0.0069,-0.227376 0.0034,-0.113688 0.01378,-0.21704 -0.02412,-0.05512 -0.05857,-0.08613 -0.03101,-0.03445 -0.03101,-0.106797 0,-0.06546 0.04134,-0.09991 0.04134,-0.0379 0.07235,-0.08957 -0.0069,-0.02067 0.01033,-0.02756 l 0.04134,-0.361734 q 0.0034,-0.0379 0.01033,-0.08268 0.01034,-0.04479 0.01378,-0.08268 0.0069,-0.07924 0.0069,-0.155029 0,-0.07579 0.0069,-0.151584 0.01723,-0.16881 0.03101,-0.334174 0.01723,-0.165364 0.01723,-0.330728 0,-0.07924 -0.0069,-0.158474 -0.0034,-0.07924 -0.02067,-0.158474 -0.05857,0.01722 -0.130914,0.0379 -0.0689,0.01723 -0.117133,0.06201 h -0.02756 q -0.08957,0 -0.16881,0.03445 -0.07579,0.03445 -0.155029,0.06546 -0.03445,0.01722 -0.0689,0.02412 -0.03445,0.0034 -0.07235,0.01378 -0.01723,0.0034 -0.0379,0.02067 -0.02067,0.01723 -0.0379,0.02412 l -0.05857,0.01378 q -0.02412,0.0069 -0.02067,0.03101 0.0034,0.02412 -0.01723,0.03101 -0.01723,0.01723 -0.04823,0.01723 -0.03101,-0.0034 -0.04823,-0.0034 h -0.01378 q -0.08613,0.06201 -0.165365,0.106798 -0.08268,0.04134 -0.192925,0.05512 -0.0379,0.02412 -0.07579,0.04823 -0.0379,0.02412 -0.08613,0.02412 -0.0379,0 -0.06201,-0.01378 -0.02756,-0.04134 -0.04134,-0.09302 -0.01723,-0.05168 -0.05512,-0.08957 0.01723,-0.01723 0.02412,-0.04479 0.0034,-0.03101 0.01033,-0.05512 0.103353,-0.04479 0.21015,-0.08613 0.103353,-0.04134 0.199816,-0.09991 0.01034,0.0034 0.03101,0.0034 0.03445,0 0.06201,-0.01033 0.02756,-0.01034 0.05512,-0.02412 0.02756,-0.01378 0.05512,-0.02412 0.02756,-0.01033 0.06546,-0.0069 0.117133,-0.06546 0.248047,-0.106797 0.130913,-0.04134 0.248046,-0.113688 0.01723,0 0.02756,0.0069 0.01378,0.0069 0.02756,0.0069 0.01378,0 0.01723,-0.0034 0.02067,-0.02756 0.05512,-0.0379 0.03445,-0.01378 0.0689,-0.02067 0.0379,-0.01033 0.0689,-0.02411 0.03445,-0.01723 0.04479,-0.05168 0.01722,0.01378 0.05168,0.01378 0.05857,0 0.106798,-0.02412 0.05168,-0.02412 0.110243,-0.02412 0.01378,0 0.02412,0.0069 0.01378,0.0034 0.02756,0.0034 0.02756,0 0.02756,-0.01723 0.0034,-0.01723 0.02067,-0.03101 0.210151,-0.0379 0.416856,-0.0689 0.21015,-0.03101 0.423746,-0.03101 0.03101,-0.02067 0.0689,-0.02067 0.0379,0 0.0689,0.02067 0.05857,-0.0069 0.117133,-0.01034 0.05857,-0.0034 0.117133,-0.0034 0.134359,0 0.275607,0.01723 0.141249,0.01723 0.279052,0.05512 0.141249,0.03445 0.268717,0.09646 0.127469,0.05857 0.237711,0.141249 0.01034,0.03101 0.02756,0.06201 0.01723,0.03101 0.04479,0.04823 0,0.0069 -0.0034,0.01034 0,0.0034 0,0.01034 0,0.0379 0.02067,0.07235 0.02412,0.03445 0.02412,0.08268 0,0.04823 -0.01723,0.09646 -0.01378,0.04823 -0.01033,0.09646 -0.0379,0.05512 -0.06546,0.09991 -0.02412,0.04479 -0.03101,0.113688 -0.06201,0.06201 -0.110243,0.137804 -0.04823,0.07235 -0.09991,0.144694 -0.04823,0.0689 -0.110243,0.127468 -0.06201,0.05857 -0.148139,0.09302 -0.0034,0.03445 -0.02756,0.07579 h -0.07235 q -0.01034,0.02756 -0.03445,0.04134 -0.02412,0.01378 -0.04823,0.02756 -0.02412,0.01378 -0.04134,0.03445 -0.01378,0.02067 -0.01378,0.05857 -0.0069,-0.0034 -0.01723,-0.0034 -0.03445,0 -0.08268,0.03445 -0.04479,0.03445 -0.07235,0.05512 -0.05857,0.04134 -0.120578,0.07579 -0.05857,0.03445 -0.103353,0.09646 -0.137804,0.05857 -0.261827,0.137803 -0.124023,0.07579 -0.268717,0.120578 -0.05512,0.05857 -0.130913,0.09302 -0.07235,0.03101 -0.141248,0.0689 v 0.01034 q 0,0.02756 0.02067,0.05512 0.02067,0.02412 0.04823,0.04479 0.02756,0.01723 0.05857,0.02412 0.03445,0.0069 0.05857,0 0.0689,0.06201 0.158474,0.09991 0.08957,0.0379 0.186035,0.0689 0.09646,0.03101 0.18948,0.06546 0.09302,0.03445 0.172254,0.08613 h 0.08268 q 0.07924,0.0689 0.186035,0.103353 0.110243,0.03445 0.210151,0.06201 0.04134,0.0379 0.103352,0.05857 0.06546,0.01722 0.124023,0.01722 0.01034,0 0.02067,0 0.01378,0 0.02412,-0.0034 v 0.0069 q 0,0.01723 0.01034,0.02412 0.01033,0.0034 0.02067,0.0069 0.01378,0 0.02412,0.0069 0.01378,0.0034 0.02067,0.01378 h 0.03445 q 0.07235,0 0.137804,0.03101 0.06546,0.02756 0.137803,0.02756 0.03101,0 0.04823,-0.0069 0.02067,0.0069 0.03101,0.02756 0.01034,0.02067 0.02756,0.03445 0.02412,-0.0034 0.04479,-0.0069 0.02067,0 0.04134,0 0.07579,0 0.141249,0.01723 0.06546,0.01722 0.134358,0.05168 0.110243,-0.04823 0.217041,-0.07924 0.106798,-0.03101 0.227376,-0.03101 v 0.0069 q 0,0.04134 0.02067,0.07579 0.02412,0.03789 0.04134,0.07579 z m -1.319468,-2.74918 q 0,-0.04134 -0.01723,-0.06546 -0.01378,-0.02412 -0.0379,-0.04134 -0.02412,-0.02067 -0.05168,-0.0379 -0.02412,-0.01723 -0.04479,-0.04479 -0.08957,-0.02756 -0.1757,-0.06201 -0.08613,-0.03445 -0.175699,-0.05857 -0.04479,-0.01033 -0.08957,-0.01722 -0.04479,-0.01033 -0.08957,-0.01033 h -0.07579 q -0.02067,-0.0034 -0.04479,-0.0069 -0.02067,-0.0069 -0.04134,-0.01033 -0.04823,-0.0069 -0.09646,-0.01034 -0.04479,-0.0034 -0.09302,-0.0034 -0.08957,0 -0.179144,0.0069 -0.08957,0.0069 -0.179145,0.01378 -0.0379,0.0034 -0.07924,0.0034 -0.04134,0 -0.07579,0.0069 -0.01723,0.0034 -0.04823,0.01722 -0.03101,0.01033 -0.06546,0.02412 -0.03445,0.01034 -0.0689,0.02412 -0.03101,0.01378 -0.05512,0.02067 0.0034,0.02412 0.0034,0.04823 0,0.02067 0,0.04479 0,0.05168 -0.0034,0.103353 -0.0034,0.05168 -0.01378,0.103353 -0.0034,0.02067 -0.01034,0.04134 -0.0069,0.02067 -0.01033,0.04134 -0.0069,0.03101 -0.0069,0.0689 0,0.03445 0,0.06546 -0.0069,0.07924 -0.01033,0.155029 -0.0034,0.07579 -0.01034,0.155029 -0.02067,0.227376 -0.04479,0.451306 -0.02067,0.223931 -0.02756,0.451307 0.113687,-0.02412 0.21704,-0.07235 0.103353,-0.04823 0.20326,-0.103352 0.09991,-0.05857 0.199815,-0.113688 0.09991,-0.05512 0.210151,-0.09302 0.02756,-0.0379 0.06546,-0.06201 0.04134,-0.02412 0.0689,-0.06201 0.03445,0 0.05168,-0.01378 0.01723,-0.01723 0.04479,-0.02412 0.165364,-0.144694 0.337618,-0.272162 0.172255,-0.127468 0.330729,-0.272162 0.01378,-0.04823 0.04479,-0.09302 0.03445,-0.04823 0.06546,-0.09646 0.03101,-0.04823 0.05512,-0.09646 0.02412,-0.04823 0.02412,-0.103353 z"
           style="font-style:normal;font-variant:normal;font-weight:normal;font-stretch:normal;font-size:3.52777px;font-family:'Rock Salt';-inkscape-font-specification:'Rock Salt, Normal';font-variant-ligatures:normal;font-variant-caps:normal;font-variant-numeric:normal;font-variant-east-asian:normal;stroke-width:0.151995"
           id="path837" />
        <path
           d="m 57.188177,55.710463 v 0.01378 q -0.02412,0.0069 -0.02412,0.03445 -0.0379,0.01723 -0.07924,0.02756 -0.04134,0.0069 -0.07924,0.02412 -0.0379,-0.0034 -0.07924,-0.0034 -0.0379,-0.0034 -0.07579,-0.0034 -0.103353,0 -0.206706,0.0069 -0.103352,0.0069 -0.206705,0 -0.04823,0.02756 -0.106798,0.04479 -0.05512,0.01378 -0.106797,0.01378 -0.04134,0 -0.07235,-0.01034 -0.08268,0.04134 -0.18259,0.0689 -0.09646,0.02756 -0.19637,0.05512 -0.09991,0.02412 -0.192925,0.05857 -0.08957,0.03101 -0.158474,0.08957 -0.0069,0.04823 -0.01034,0.09646 -0.0034,0.04479 -0.0034,0.08957 0,0.04823 0.0034,0.08957 0.0069,0.04134 0.02412,0.08268 0.01723,0.0069 0.0379,0.01034 0.02412,0.0034 0.04134,0.0034 0.01722,0 0.03445,-0.0034 0.01723,-0.0069 0.02412,-0.02412 0.05168,-0.0069 0.103353,-0.0034 0.05168,0 0.103352,0 0.05168,0 0.09991,-0.0034 0.05168,-0.0034 0.09991,-0.01722 0.05512,-0.01378 0.106798,-0.01723 0.05512,-0.0034 0.106798,-0.0069 0.05168,-0.0034 0.106798,-0.01034 0.05512,-0.01033 0.113688,-0.0379 0.04479,0.01722 0.08957,0.01722 0.04823,0 0.09302,0.0069 0.02412,0.01722 0.0379,0.0379 0.01723,0.02067 0.01723,0.04823 0,0.04823 -0.03445,0.09646 -0.03445,0.04823 -0.05512,0.08957 h -0.0379 q -0.08268,0 -0.161919,0.02411 -0.07579,0.02067 -0.155029,0.05168 -0.07579,0.02756 -0.155029,0.05168 -0.07579,0.02067 -0.158474,0.02067 -0.01378,0 -0.01722,0.01723 0,0.01378 -0.0069,0.02067 -0.01723,-0.0034 -0.05168,-0.0034 -0.07924,0 -0.151584,0.01723 -0.07235,0.01722 -0.148138,0.01722 -0.02067,0 -0.04134,0 -0.02067,-0.0034 -0.04134,-0.0069 -0.01723,0.02756 -0.04479,0.0379 -0.02756,0.0069 -0.05168,0.02756 -0.01033,0.031 -0.01378,0.07579 0,0.04479 -0.0034,0.09302 0,0.04479 -0.0069,0.08613 -0.0069,0.04134 -0.02756,0.06546 0.0034,0.01723 0.02756,0.01378 0.02411,-0.0069 0.02411,0.02067 0,0.03101 -0.0069,0.06546 -0.0069,0.03445 -0.0069,0.0689 0,0.06546 0.01378,0.144694 0.01723,0.07579 0.04823,0.141248 0.03445,0.06546 0.08957,0.110243 0.05512,0.04134 0.137803,0.04134 0.05512,0 0.103353,-0.02067 0.04823,-0.02067 0.07924,-0.0689 l 0.01722,-0.0034 q 0.01378,0 0.02412,0.0034 0.01378,0.0034 0.02756,0.0034 0.02067,0 0.05168,-0.02412 0.03445,-0.02756 0.07235,-0.06201 0.04134,-0.03445 0.08268,-0.06546 0.04134,-0.03445 0.07924,-0.04823 0.02411,-0.04823 0.04479,-0.09646 0.02412,-0.04823 0.0689,-0.07579 v -0.09991 q 0.03445,-0.0379 0.07235,-0.0689 0.04134,-0.03101 0.06201,-0.07924 0.01723,0.0069 0.03101,0.01033 0.01722,0.0034 0.03445,0.0034 0.01723,0 0.03445,-0.0034 0.02067,-0.0034 0.0379,-0.01033 0.02756,0.0379 0.04134,0.08613 0.01722,0.04479 0.04134,0.08613 -0.03101,0.06201 -0.07235,0.148138 -0.04134,0.08613 -0.08957,0.172255 -0.04823,0.08613 -0.103353,0.165364 -0.05168,0.07579 -0.103353,0.117133 -0.01033,0.01033 -0.04479,0.02412 -0.0379,0.02756 -0.0689,0.05168 -0.03101,0.02756 -0.05857,0.06201 -0.09991,0.03101 -0.192925,0.08268 -0.08957,0.05168 -0.179144,0.09991 -0.04134,-0.01033 -0.08957,-0.01033 -0.04134,0 -0.08268,0.0034 -0.04134,0.0069 -0.08957,0.0069 -0.01378,-0.01722 -0.04134,-0.02411 -0.02412,-0.0034 -0.01723,-0.03445 -0.117133,-0.0069 -0.189479,-0.06546 -0.07235,-0.05512 -0.124024,-0.137804 -0.04823,-0.08268 -0.07924,-0.179144 -0.03101,-0.09646 -0.06546,-0.186035 v -0.01034 q 0,-0.01723 0.01378,-0.02067 0.01378,-0.0034 0.01378,-0.02067 0,-0.0069 -0.0034,-0.01034 -0.01033,-0.0379 -0.01722,-0.06546 -0.0069,-0.02756 -0.0069,-0.06546 0,-0.05512 0.0069,-0.106797 0.0069,-0.05512 0.0069,-0.110243 0,-0.05512 -0.01378,-0.09646 0.01378,-0.01723 0.02412,-0.04479 0.0069,-0.03101 0.01034,-0.06201 0.0034,-0.03101 0.0034,-0.06201 0.0034,-0.03101 0.01033,-0.05512 -0.01378,-0.0379 -0.02412,-0.06546 -0.01033,-0.03101 -0.01033,-0.07235 v -0.02412 q 0.03445,-0.05857 0.05857,-0.120578 0.02412,-0.06201 0.05168,-0.127468 v -0.01034 q 0,-0.09991 -0.0069,-0.199815 -0.0069,-0.09991 -0.0069,-0.199815 0,-0.03445 0,-0.06546 0,-0.03445 0.0034,-0.06546 0.02756,-0.01378 0.04134,-0.0379 0.01378,-0.02412 0.04134,-0.0379 h 0.113688 q 0.01033,-0.01722 0.02067,-0.03445 0.01034,-0.01723 0.01378,-0.0379 0.0379,-0.01033 0.07235,-0.02756 0.0379,-0.02067 0.0689,-0.04134 0.04823,-0.02756 0.08613,-0.04823 0.04134,-0.02412 0.07924,-0.0379 0.04134,-0.01723 0.08613,-0.02756 0.04479,-0.01033 0.103353,-0.01723 0.02756,0 0.03445,-0.01033 0.01033,-0.01033 0.02756,-0.02412 0.04134,0.0069 0.08268,0.01378 0.04134,0.0034 0.08268,0.0034 0.08268,0 0.155029,-0.03101 0.103353,0 0.20326,-0.0034 0.103353,-0.0034 0.206705,-0.0034 0.08957,0 0.179145,0.0069 0.08957,0.0069 0.175699,0.02412 0.03101,-0.01034 0.0689,-0.01034 0.04134,0 0.08268,0.01034 0.04479,0.0069 0.08613,0 0.0034,0.0379 0.01723,0.06546 0.01723,0.02412 0.01723,0.05857 z"
           style="font-style:normal;font-variant:normal;font-weight:normal;font-stretch:normal;font-size:3.52777px;font-family:'Rock Salt';-inkscape-font-specification:'Rock Salt, Normal';font-variant-ligatures:normal;font-variant-caps:normal;font-variant-numeric:normal;font-variant-east-asian:normal;stroke-width:0.151995"
           id="path839" />
        <path
           d="m 60.61604,55.996405 q -0.01033,0.03101 -0.04134,0.04479 -0.02756,0.01034 -0.05857,0.01723 -0.03101,0.0069 -0.05857,0.02412 -0.02412,0.01378 -0.03101,0.04823 l -0.0069,0.0034 q -0.01378,0 -0.02067,-0.0069 -0.0034,-0.01034 -0.0069,-0.01723 -0.0034,-0.01033 -0.01033,-0.01722 -0.0034,-0.01034 -0.01378,-0.01034 -0.0379,0 -0.07579,0.0069 -0.03445,0.0069 -0.0689,0.0069 -0.05168,0 -0.09302,-0.01378 -0.02412,0.0069 -0.02756,0.03101 0,0.02412 -0.02067,0.03101 -0.01723,0.0069 -0.04134,0.0069 -0.02412,-0.0034 -0.04823,0.0034 -0.05512,0.01378 -0.110243,0.02756 -0.05512,0.01378 -0.110243,0.01378 -0.03101,0 -0.04479,-0.0034 -0.05168,0.04134 -0.117133,0.06201 -0.06546,0.01722 -0.137803,0.03445 -0.0689,0.01378 -0.137804,0.0379 -0.06546,0.02412 -0.117133,0.07579 -0.02756,-0.0069 -0.04823,-0.0069 -0.04479,0 -0.07924,0.02067 -0.03445,0.01723 -0.07235,0.03445 -0.01723,0.0069 -0.03445,0.0069 -0.01723,0 -0.0379,0.0069 -0.02067,0.0069 -0.02756,0.02412 -0.0034,0.01378 -0.02067,0.02756 0,0.124023 0.02412,0.248046 0.02412,0.120578 0.02412,0.244601 v 0.01378 q 0.0069,0.05857 0.0379,0.110243 0.03101,0.04823 0.03101,0.09991 0,0.01722 -0.0069,0.0379 0.08957,0.02067 0.117133,0.09302 0.03101,0.0689 0.04823,0.151584 0.02067,0.07924 0.05168,0.148139 0.03445,0.0689 0.130914,0.08613 0.0069,0.03445 0.01034,0.07235 0.0034,0.03445 0.0034,0.0689 0,0.04823 -0.01033,0.09302 -0.01034,0.04823 -0.04134,0.08613 -0.05168,0.0034 -0.07579,0.0034 -0.02412,0 -0.07235,0.02067 -0.0689,-0.04134 -0.124023,-0.09646 -0.05168,-0.05168 -0.09991,-0.110243 -0.04479,-0.06201 -0.08957,-0.124023 -0.04479,-0.06546 -0.09646,-0.124023 -0.179144,0.04479 -0.368624,0.06201 -0.186035,0.01378 -0.37207,0.01378 -0.0069,0.0069 -0.02067,0.0069 -0.01378,0 -0.02756,0.0034 -0.01033,0 -0.02067,0.0069 -0.0069,0.0034 -0.0034,0.01723 -0.02412,-0.01378 -0.05512,-0.01723 -0.02756,-0.0069 -0.05168,-0.0069 -0.01723,0 -0.03445,0.0034 -0.01722,0 -0.03445,0.01034 -0.130913,-0.02412 -0.254936,-0.06546 -0.120578,-0.04479 -0.248047,-0.07235 0,-0.02756 -0.01378,-0.0379 -0.01378,-0.01378 -0.02412,-0.0379 -0.144693,-0.08957 -0.244601,-0.21704 -0.09646,-0.127469 -0.07924,-0.310058 l -0.02412,-0.04823 q 0,-0.05512 0.02412,-0.07924 -0.01378,-0.02412 -0.04823,-0.04823 0.03101,-0.04823 0.05512,-0.09991 0.02412,-0.05168 0.03445,-0.110243 0.0034,-0.01722 0.0034,-0.03101 0,-0.01378 0.0069,-0.03101 0.0069,-0.02067 0.02067,-0.04479 0.01034,-0.02756 0.02067,-0.04823 0.05512,-0.117133 0.120579,-0.223931 0.0689,-0.110243 0.172254,-0.18948 0.0069,-0.05857 0.03445,-0.09646 0.02756,-0.04134 0.05857,-0.07235 0.03445,-0.03445 0.06546,-0.0689 0.03445,-0.03445 0.05168,-0.08268 0.0689,-0.05857 0.137804,-0.113688 0.07235,-0.05512 0.120578,-0.130913 0.06201,-0.02067 0.117133,-0.05168 0.05512,-0.03445 0.09302,-0.08613 0.08268,-0.0069 0.161919,-0.03101 0.08268,-0.02412 0.172255,-0.02412 0.0379,0 0.08957,0.01723 0.05512,0.01378 0.08268,0.05168 0.0034,0.0069 0.0034,0.01723 0.0034,0.0069 0.0034,0.01723 0.0034,0.0069 0.0069,0.01378 0.0069,0.0034 0.02067,0 0,0.07579 -0.01723,0.155029 -0.01723,0.07579 -0.08957,0.117133 -0.04479,-0.01378 -0.09646,-0.01378 -0.0689,0 -0.127468,0.02756 -0.05512,0.02412 -0.110243,0.05857 -0.05168,0.03101 -0.106798,0.06546 -0.05512,0.03101 -0.117133,0.04479 -0.0069,0.02756 -0.01378,0.05168 -0.0034,0.02067 0.0034,0.04823 -0.01723,0 -0.02756,-0.0034 -0.0069,-0.0069 -0.02412,-0.0069 -0.02412,0 -0.03445,0.02756 -0.0069,0.02756 -0.01378,0.04479 -0.06546,0.02756 -0.110243,0.07924 -0.04134,0.04823 -0.07924,0.106798 -0.03445,0.05512 -0.07579,0.106797 -0.04134,0.05168 -0.103353,0.07924 -0.02756,0.110243 -0.05512,0.217041 -0.02411,0.106798 -0.05857,0.213595 0.01034,0.04134 0.01034,0.08613 0,0.05512 -0.01034,0.09991 0.01723,0.02756 0.03445,0.06546 0.02067,0.0379 0.04134,0.07924 0.02067,0.04134 0.04134,0.07579 0.02412,0.03445 0.04479,0.05168 0.0379,0.02756 0.117133,0.05168 0.07924,0.02067 0.141249,0.07235 0.0069,0 0.01723,0 0.01033,-0.0034 0.01723,-0.0034 0.04134,0 0.08957,0.02067 0.04823,0.02067 0.06201,0.02067 0.192925,0 0.420301,-0.02412 0.227376,-0.02756 0.420301,-0.06546 0.0069,-0.03445 0.0069,-0.05857 0,-0.04479 -0.01378,-0.08613 -0.01378,-0.04479 -0.04479,-0.07579 0,-0.05168 0,-0.103352 0.0034,-0.05168 0.0034,-0.103353 0,-0.08613 -0.0069,-0.18259 -0.0069,-0.09646 -0.03445,-0.179144 h -0.0069 q -0.04479,0 -0.08268,0.02412 -0.03445,0.02067 -0.07235,0.02067 -0.02067,0 -0.03445,-0.01033 -0.04134,0.04823 -0.09991,0.07235 -0.05857,0.02412 -0.124023,0.04479 -0.06546,0.01723 -0.130913,0.0379 -0.06201,0.02067 -0.113688,0.05857 -0.02756,-0.01033 -0.05168,-0.01033 -0.02411,0 -0.04823,0.0034 -0.02067,0.0034 -0.04823,0.0069 -0.07235,-0.06201 -0.07235,-0.155029 0,-0.04823 0.01378,-0.09302 0.01723,-0.04823 0.04479,-0.08957 0.01723,-0.01033 0.04134,-0.01033 0.02412,-0.0034 0.04823,-0.0069 0.02412,-0.0069 0.0379,-0.01723 0.01723,-0.01034 0.02067,-0.0379 0.01034,0.01033 0.01723,0.01033 0.0069,0 0.01378,-0.0034 0.0069,-0.0034 0.01378,-0.0034 0.0069,0 0.01034,0.0069 0.0069,0.0069 0.0069,0.01378 0.148139,-0.07924 0.303168,-0.134358 0.155029,-0.05512 0.313503,-0.09991 0.161919,-0.04479 0.323838,-0.08268 0.161919,-0.04134 0.320393,-0.08957 0.02412,-0.02067 0.05168,-0.03101 0.02756,-0.01033 0.04823,-0.03101 0.02412,0.01378 0.05857,0.01378 0.04823,0 0.103353,-0.01723 0.05857,-0.02067 0.09646,-0.04823 0.01378,0.0034 0.02412,0.0034 0.01378,0 0.02411,0 0.0689,0 0.127469,-0.02067 0.06201,-0.02067 0.120578,-0.05512 h 0.01723 q 0.106798,0 0.210151,-0.02412 0.106797,-0.02412 0.21704,-0.02412 0.141249,0 0.248046,0.07235 v 0.04134 q 0,0.02756 0,0.05168 0.0034,0.02067 0.01378,0.04479 z"
           style="font-style:normal;font-variant:normal;font-weight:normal;font-stretch:normal;font-size:3.52777px;font-family:'Rock Salt';-inkscape-font-specification:'Rock Salt, Normal';font-variant-ligatures:normal;font-variant-caps:normal;font-variant-numeric:normal;font-variant-east-asian:normal;stroke-width:0.151995"
           id="path841" />
        <path
           d="m 60.367993,57.429562 q -0.01722,0.02756 -0.04134,0.05168 -0.02412,0.02067 -0.04479,0.04479 -0.02412,0.01034 -0.05512,0.01034 -0.02756,0 -0.05512,0 -0.02411,-0.0034 -0.04823,0 -0.02067,0 -0.03445,0.01378 -0.02756,-0.0069 -0.04134,-0.02412 -0.01378,-0.02067 -0.04823,-0.02412 -0.01378,-0.0034 -0.02756,0 -0.05168,-0.05857 -0.09646,-0.124024 -0.04134,-0.06546 -0.07924,-0.124023 -0.0034,-0.127468 -0.02067,-0.258381 -0.0034,-0.03101 -0.01033,-0.06201 -0.0069,-0.03101 -0.01034,-0.05857 0,-0.03445 0.0034,-0.06546 0.0069,-0.03445 0.01034,-0.06201 0.01378,-0.09991 0.03101,-0.19637 0.01722,-0.09646 0.03101,-0.19637 0.01378,-0.08957 0.01378,-0.186034 0,-0.09991 -0.03101,-0.186035 l -0.0034,-0.01723 q 0.0069,-0.02756 0.01378,-0.04479 0.01034,-0.02067 0.01378,-0.04479 0.0069,-0.0379 -0.01723,-0.05512 0.01034,-0.02756 0.03445,-0.03445 0.02412,-0.01033 0.02756,-0.04134 0.0034,-0.01378 0,-0.02756 0.02756,-0.01034 0.05512,-0.01723 0.03101,-0.01034 0.05857,-0.0034 0.04479,0.0069 0.07924,0.03101 0.03445,0.02067 0.06546,0.04823 0.05512,0.165364 0.04479,0.351399 -0.01034,0.182589 -0.03445,0.368624 -0.02412,0.186035 -0.03101,0.365179 -0.0069,0.1757 0.05512,0.327284 l 0.0069,0.0034 q 0.01723,0.0034 0.02756,-0.01034 0.01034,-0.01722 0.02756,-0.01378 0.01378,0.0069 0.01723,0.0069 0.01378,0.0689 0.04479,0.130914 0.03101,0.06201 0.0689,0.124023 z"
           style="font-style:normal;font-variant:normal;font-weight:normal;font-stretch:normal;font-size:3.52777px;font-family:'Rock Salt';-inkscape-font-specification:'Rock Salt, Normal';font-variant-ligatures:normal;font-variant-caps:normal;font-variant-numeric:normal;font-variant-east-asian:normal;stroke-width:0.151995"
           id="path843" />
        <path
           d="m 62.879463,55.906833 q -0.02067,0.03101 -0.02412,0.0689 -0.0034,0.0379 -0.0034,0.0689 0,0.04134 0,0.08268 0.0034,0.0379 0.0034,0.07579 v 0.05168 q -0.0069,0.02412 -0.02067,0.04823 -0.01378,0.02412 -0.02067,0.04823 -0.04823,0.127469 -0.04823,0.254937 v 0.0069 q -0.01722,0.04134 -0.03445,0.07579 -0.01378,0.03445 -0.02756,0.0689 -0.01378,0.03101 -0.02067,0.0689 -0.0069,0.03445 -0.0034,0.08268 -0.04823,0.120578 -0.127468,0.220485 -0.07924,0.09646 -0.155029,0.199815 -0.07235,0.02756 -0.134359,0.07235 -0.05857,0.04479 -0.113687,0.09991 -0.106798,0.03445 -0.210151,0.07924 -0.103352,0.04479 -0.186035,0.120578 -0.06546,0.0069 -0.130913,0.02067 -0.06546,0.01378 -0.127468,0.04134 h -0.04134 q -0.03101,0 -0.04479,-0.01378 -0.04479,0.02412 -0.09302,0.03445 -0.04823,0.0069 -0.09646,0.0069 -0.06201,0 -0.124023,-0.0069 -0.05857,-0.01033 -0.120578,-0.02067 -0.03445,-0.04823 -0.09646,-0.07235 -0.06201,-0.02756 -0.110243,-0.05168 -0.09991,-0.137803 -0.144693,-0.265272 -0.04479,-0.130913 -0.09302,-0.292832 0.0069,-0.04823 0.02412,-0.09302 0.01723,-0.04823 0.01378,-0.103353 0.06201,-0.179145 0.161919,-0.323838 0.103353,-0.148139 0.234266,-0.282498 0,-0.02067 0.0069,-0.03445 0.01034,-0.01378 0.0034,-0.04134 0.0034,0.0034 0.01378,0.0034 0.02756,0 0.03445,-0.01378 0.0069,-0.01722 0.0034,-0.0379 0.124023,-0.07924 0.223931,-0.182589 0.103352,-0.103353 0.234266,-0.172255 0.01033,-0.03101 0.03445,-0.05168 0.02412,-0.02067 0.0379,-0.04823 0.110243,-0.03101 0.199816,-0.09302 0.08957,-0.06201 0.189479,-0.110243 0.05512,-0.03101 0.103353,-0.04134 0.05168,-0.01378 0.110243,-0.02756 0.02067,-0.0069 0.0379,-0.01034 0.01723,-0.0034 0.0379,-0.0034 0.06201,0 0.120578,0.02412 0.05857,0.02067 0.120578,0.02067 0.01723,0 0.02756,0 0.01378,-0.0034 0.02756,-0.0069 0.05857,0.07235 0.148139,0.110243 0.02067,0.05168 0.04823,0.08957 0.03101,0.0379 0.06201,0.07579 0.03101,0.03445 0.05512,0.07924 0.02756,0.04134 0.03445,0.09991 z m -0.344509,0.179145 q 0,-0.01723 -0.0034,-0.03101 -0.03445,-0.01034 -0.06546,-0.02756 -0.03101,-0.01723 -0.0689,-0.01723 -0.02412,0 -0.04823,0.01034 -0.0034,-0.02412 -0.02067,-0.03445 -0.01378,-0.01033 -0.03445,-0.01722 -0.01723,-0.01034 -0.0379,-0.01378 -0.01722,-0.0069 -0.03101,-0.02067 -0.01033,-0.02756 -0.02412,-0.05512 -0.01033,-0.03101 -0.04134,-0.04479 -0.03101,0.03101 -0.07235,0.05168 -0.04134,0.01723 -0.08613,0.03445 -0.04134,0.01723 -0.08268,0.04134 -0.0379,0.02412 -0.06546,0.05857 h -0.06201 q -0.02067,0.0379 -0.05857,0.05857 -0.0379,0.01723 -0.06546,0.05168 -0.05512,0.02756 -0.103352,0.0689 -0.04479,0.0379 -0.08957,0.08268 -0.04479,0.04134 -0.08957,0.08613 -0.04134,0.04479 -0.08957,0.08268 -0.04479,0.09646 -0.09991,0.168809 -0.05168,0.0689 -0.09991,0.141249 -0.04479,0.07235 -0.07924,0.158474 -0.03101,0.08268 -0.03101,0.206705 0,0.01723 0,0.03445 0,0.01722 0.0034,0.03445 0.04479,0.04823 0.07235,0.103352 0.03101,0.05512 0.09991,0.07924 0.0689,0.02756 0.144694,0.02412 0.07924,-0.0034 0.151584,0.01723 0.165364,-0.03101 0.316948,-0.09991 0.155029,-0.07235 0.292832,-0.172254 0.02067,-0.01723 0.04823,-0.03445 0.02756,-0.02067 0.04479,-0.04134 0.01723,-0.01723 0.02756,-0.0379 0.01378,-0.02067 0.02756,-0.0379 0.02756,-0.04479 0.06201,-0.08957 0.03445,-0.04479 0.07235,-0.08268 0.01723,-0.07579 0.04479,-0.144693 0.02756,-0.07235 0.05512,-0.141249 0.02756,-0.0689 0.04479,-0.141249 0.02067,-0.07235 0.02067,-0.151583 0,-0.01723 -0.0034,-0.0379 0,-0.02067 -0.0034,-0.0379 0.02756,-0.0379 0.02756,-0.08268 z"
           style="font-style:normal;font-variant:normal;font-weight:normal;font-stretch:normal;font-size:3.52777px;font-family:'Rock Salt';-inkscape-font-specification:'Rock Salt, Normal';font-variant-ligatures:normal;font-variant-caps:normal;font-variant-numeric:normal;font-variant-east-asian:normal;stroke-width:0.151995"
           id="path845" />
        <path
           d="m 65.384042,55.638116 q -0.0069,0.04134 -0.02067,0.07235 -0.01033,0.02756 -0.0034,0.07579 -0.03445,0.0034 -0.05512,0.02412 -0.01723,0.01723 -0.03101,0.04134 -0.01033,0.02412 -0.02412,0.05168 -0.01033,0.02412 -0.02756,0.04479 0.02756,0.124023 0.03101,0.251491 0.0034,0.127469 0.01723,0.251492 0.01722,0.158474 0.05168,0.313503 0.0379,0.151584 0.0379,0.310058 0,0.04823 -0.0034,0.08957 0,0.04134 0,0.08613 0,0.02756 0,0.05857 0.0034,0.02756 0.0034,0.05512 0,0.09991 -0.02756,0.199815 -0.02411,0.09991 -0.0379,0.199815 -0.04134,0.0379 -0.07235,0.08268 -0.02756,0.04479 -0.05857,0.08268 -0.03101,0.0379 -0.07235,0.06546 -0.04134,0.03101 -0.103352,0.04134 -0.01034,0.03445 -0.04134,0.05168 -0.02756,0.01723 -0.04823,0.04823 h -0.0069 q -0.08613,0 -0.148139,-0.02412 -0.06201,-0.02412 -0.117133,-0.05512 -0.05168,-0.03101 -0.106797,-0.06546 -0.05512,-0.03445 -0.127469,-0.05512 -0.09646,-0.07924 -0.175699,-0.172255 -0.07924,-0.09646 -0.179145,-0.172254 -0.02412,-0.0689 -0.06546,-0.113688 -0.0379,-0.04479 -0.07579,-0.103353 -0.01723,-0.02412 -0.02756,-0.04479 -0.0069,-0.02067 -0.02067,-0.04823 -0.01033,-0.02756 -0.03445,-0.0379 -0.02067,-0.01033 -0.0379,-0.02412 -0.02756,-0.106797 -0.07924,-0.19637 -0.05168,-0.08957 -0.120578,-0.172254 -0.02067,0.0379 -0.03445,0.08268 -0.01034,0.04134 -0.02067,0.08613 -0.01033,0.04134 -0.02756,0.08613 -0.01378,0.04134 -0.0379,0.07579 v 0.01034 q 0,0.01723 0.01378,0.02067 0.01378,0.0034 0.01378,0.02067 0,0.0034 -0.0034,0.0069 0,0.0034 0,0.0069 -0.01722,0.01378 -0.02756,0.03445 -0.0069,0.02067 -0.03445,0.02412 0.0034,0.01722 0.0034,0.03445 0,0.01378 0,0.03101 0,0.09991 -0.02412,0.199815 -0.02067,0.09991 -0.02067,0.203261 0,0.02067 0,0.04479 0,0.02412 0.0034,0.04479 0.0069,0.02067 0.02067,0.04134 0.01378,0.02067 0.01378,0.0379 0,0.02412 -0.02067,0.04479 0.02412,0.01723 0.05512,0.0379 0.03101,0.02067 0.05512,0.04479 0.02756,0.02756 0.04479,0.05512 0.01723,0.03101 0.01723,0.06546 0,0.05857 -0.0379,0.08268 -0.0379,0.02412 -0.09302,0.0379 -0.05168,0.01378 -0.110243,0.02412 -0.05512,0.01378 -0.09302,0.04479 h -0.01034 q -0.04134,0 -0.06201,-0.02412 -0.02067,-0.02412 -0.06201,-0.02412 -0.06546,-0.106798 -0.08957,-0.241156 -0.02412,-0.130914 -0.02412,-0.251492 0,-0.148139 0.02756,-0.296277 0.02412,-0.148139 0.06201,-0.292833 0.03445,-0.144693 0.07579,-0.285942 0.04479,-0.144694 0.08268,-0.289387 0,-0.0034 0,-0.0034 0.0034,-0.0034 0.0034,-0.0069 0,-0.01723 -0.01033,-0.02412 -0.0069,-0.0069 -0.0069,-0.02067 0,-0.0069 0.0034,-0.0069 0.01034,-0.03445 0.02067,-0.06546 0.01378,-0.03101 0.02067,-0.0689 0.02067,-0.09646 0.02756,-0.19637 0.01033,-0.103353 0.01033,-0.203261 0.0034,-0.09991 0.0069,-0.199815 0.0069,-0.103352 0.02411,-0.20326 0.02756,-0.02756 0.05168,-0.05857 0.02412,-0.03101 0.06201,-0.05512 0.0689,0.0034 0.137804,0.02067 0.0689,0.01723 0.130913,0.05512 0.04134,0.148139 0.05512,0.296278 0.01723,0.148138 0.05512,0.296277 v 0.01033 q 0,0.01723 0.01723,0.01723 0.02067,-0.0034 0.03101,0.01033 -0.0069,0.01034 -0.01033,0.02412 0,0.01378 0,0.02756 v 0.05857 q 0.0069,0.02756 0.01722,0.05857 0.01034,0.03101 0.04479,0.0379 0.01723,0.110243 0.05168,0.203261 0.03445,0.09302 0.07924,0.179144 0.04479,0.08613 0.09646,0.172255 0.05168,0.08268 0.106798,0.175699 0.08613,0.06546 0.148139,0.151584 0.06201,0.08268 0.124023,0.161919 0.06546,0.07579 0.144694,0.134359 0.08268,0.05857 0.213595,0.07235 0.01722,-0.01378 0.02412,-0.0379 0.01033,-0.02411 0.01722,-0.04823 0.01034,-0.02412 0.02067,-0.04134 0.01378,-0.02067 0.0379,-0.03101 0.0069,-0.09646 0.01378,-0.19637 0.01033,-0.09991 0.04479,-0.18948 -0.01723,-0.03101 -0.01723,-0.07579 0,-0.03445 0.0034,-0.06546 0.0069,-0.03101 0.0069,-0.06201 0,-0.06546 -0.02756,-0.106797 0,-0.02412 0.0034,-0.04823 0.0034,-0.02756 0.02067,-0.05168 -0.02756,-0.0689 -0.04479,-0.144694 -0.01378,-0.07579 -0.01378,-0.155029 0,-0.04479 0.01034,-0.09302 -0.02067,-0.05168 -0.02756,-0.120578 -0.0069,-0.07235 -0.01378,-0.141249 -0.0069,-0.07235 -0.02067,-0.134358 -0.01378,-0.06201 -0.05168,-0.09991 0.02067,-0.03101 0.02067,-0.07235 0,-0.0689 -0.02067,-0.130913 -0.02067,-0.06201 -0.02067,-0.130913 0,-0.04823 0.02067,-0.09646 0.07579,0.0034 0.148138,0.01723 0.07579,0.01033 0.148139,0.01033 0.02067,0.02756 0.04823,0.04479 0.02756,0.01723 0.05857,0.03445 0.03101,0.01378 0.05857,0.03101 0.03101,0.01722 0.04823,0.04823 z"
           style="font-style:normal;font-variant:normal;font-weight:normal;font-stretch:normal;font-size:3.52777px;font-family:'Rock Salt';-inkscape-font-specification:'Rock Salt, Normal';font-variant-ligatures:normal;font-variant-caps:normal;font-variant-numeric:normal;font-variant-east-asian:normal;stroke-width:0.151995"
           id="path847" />
        <path
           d="m 69.959118,57.774071 q 0,0.03445 -0.0034,0.05168 -0.01723,0.0069 -0.02756,0.02067 -0.01033,0.01034 -0.03445,0.0069 -0.0069,0.05168 -0.03445,0.08613 -0.02756,0.03445 -0.05857,0.06201 -0.02756,0.03101 -0.05512,0.06201 -0.02756,0.03445 -0.03445,0.08613 -0.05168,0.02756 -0.103353,0.07235 -0.04823,0.04823 -0.08613,0.06546 -0.02756,0.01378 -0.05857,0.02067 -0.03101,0.01033 -0.06201,0.02412 -0.09991,0.04479 -0.206705,0.09302 -0.103353,0.04823 -0.217041,0.04823 h -0.02411 q -0.01378,0.01378 -0.03445,0.01723 -0.02067,0.0069 -0.04134,0.01034 -0.02067,0.0034 -0.04134,0.01033 -0.02067,0.0069 -0.03101,0.02067 -0.0379,-0.01378 -0.08268,-0.01378 h -0.02412 q -0.05857,0.01378 -0.110243,0.02067 -0.05168,0.0069 -0.110243,0.0069 -0.103352,0 -0.206705,-0.01378 -0.103352,-0.01378 -0.206705,-0.02412 -0.06546,-0.05168 -0.106798,-0.130913 -0.04134,-0.07579 -0.04134,-0.161919 0,-0.06546 0.02756,-0.124023 0.02756,-0.05512 0.07235,-0.09991 h 0.01034 q 0.03101,0 0.06201,-0.01378 0.03445,-0.01378 0.06546,-0.01378 0.03445,0 0.05512,0.02756 0.02412,0.02756 0.03445,0.06546 0.01378,0.0379 0.01723,0.07579 0.0034,0.04134 0.0034,0.06546 0.0379,0.01723 0.07924,0.02067 0.04479,0.0034 0.08957,0.0034 0.04479,0 0.09991,-0.0069 0.05512,-0.0034 0.110243,-0.01723 0.05857,-0.01034 0.110242,-0.02756 0.05512,-0.01723 0.09302,-0.04479 0.18948,-0.01723 0.334173,-0.08613 0.144694,-0.0689 0.306613,-0.161919 0.0069,-0.0379 0.02756,-0.05857 0.02412,-0.02412 0.02412,-0.0689 0,-0.0069 -0.0034,-0.01378 0,-0.01034 0,-0.01723 -0.0689,-0.08613 -0.144693,-0.151584 -0.07235,-0.06546 -0.18948,-0.08613 -0.01378,-0.03101 -0.04479,-0.04479 -0.03101,-0.01723 -0.06546,-0.03101 -0.03445,-0.01378 -0.06546,-0.02756 -0.031,-0.01722 -0.04479,-0.05512 -0.09302,-0.01722 -0.192925,-0.04134 -0.09646,-0.02756 -0.165364,-0.09646 -0.05512,-0.0034 -0.106798,-0.02067 -0.04823,-0.02067 -0.09646,-0.0379 -0.04823,-0.02067 -0.09991,-0.03445 -0.05168,-0.01723 -0.106797,-0.01723 -0.01378,-0.02412 -0.0379,-0.0379 -0.02412,-0.01378 -0.05512,-0.02412 -0.02756,-0.01034 -0.05512,-0.02067 -0.02412,-0.01378 -0.0379,-0.0379 -0.01378,0.0034 -0.02067,0.01378 -0.0069,0.01033 -0.02411,0.01033 h -0.01378 q -0.0069,-0.02067 -0.02756,-0.02756 -0.02067,-0.01034 -0.02412,-0.0379 -0.06201,-0.0034 -0.113688,-0.02412 -0.04823,-0.02067 -0.09302,-0.04479 -0.04134,-0.02756 -0.08613,-0.05168 -0.04479,-0.02412 -0.09991,-0.0379 -0.03445,-0.02756 -0.06546,-0.05857 -0.02756,-0.03445 -0.07235,-0.03445 -0.01034,0 -0.0379,0.0069 -0.0069,-0.06201 -0.05168,-0.08613 -0.04479,-0.02756 -0.09646,-0.04823 -0.03445,-0.08957 -0.09302,-0.158474 -0.05857,-0.0689 -0.127468,-0.127468 0.0069,-0.02067 0.0069,-0.03101 0,-0.03445 -0.01722,-0.05857 -0.01723,-0.02756 -0.0379,-0.04479 -0.04823,-0.155029 -0.04823,-0.303168 0,-0.206705 0.09302,-0.382404 0.08957,-0.179145 0.285942,-0.268717 0.0034,-0.02756 0.01723,-0.04823 0.01722,-0.02067 0.02067,-0.04823 0.03101,0 0.04823,-0.01378 0.01722,-0.01378 0.03101,-0.02756 0.01723,-0.01723 0.03445,-0.03101 0.01723,-0.01378 0.04479,-0.01723 0.130914,-0.113688 0.279053,-0.18259 0.148138,-0.07235 0.303167,-0.148138 0.03101,-0.01378 0.05168,-0.05168 h 0.02067 q 0.03445,0 0.05168,-0.01378 0.02067,-0.01723 0.05857,-0.01034 0.01378,-0.02067 0.03445,-0.02756 0.02412,-0.0069 0.04479,-0.01033 0.02412,-0.0069 0.04479,-0.01723 0.02067,-0.01033 0.02756,-0.03101 h 0.02412 q 0.05857,0 0.113688,-0.01723 0.05512,-0.02067 0.110243,-0.04479 h 0.02412 q 0.0689,0 0.127468,-0.02412 0.06201,-0.02756 0.130913,-0.0379 0.02756,-0.0069 0.05512,-0.0034 0.02756,0.0034 0.05512,0.0034 0.01723,0 0.04134,-0.0034 0.02412,-0.0034 0.03445,-0.02067 h 0.0069 q 0.02067,0 0.02412,0.01378 0.0034,0.01378 0.02067,0.01378 0.02412,0 0.04823,-0.0069 0.02411,-0.0069 0.04823,-0.0069 0.103353,0 0.20326,0.02067 0.103353,0.02067 0.20326,0.0379 0.0069,0.04134 0.03445,0.05857 0.03101,0.01723 0.06546,0.03101 v 0.01378 q 0,0.02756 0.01378,0.04479 -0.01378,0.04823 -0.04823,0.07235 -0.03445,0.02412 -0.07579,0.04134 0.01723,0.01378 0.02067,0.0379 0.0034,0.02412 0.0034,0.04479 v 0.04134 l -0.01723,-0.0034 q -0.05512,0 -0.05512,0.05168 -0.04479,-0.02756 -0.09991,-0.03445 -0.05168,-0.0069 -0.103352,-0.0069 -0.0689,0 -0.144694,0.0069 -0.07579,0.0034 -0.148139,-0.0034 -0.02756,0.03445 -0.0689,0.05168 -0.04134,0.01378 -0.08268,0.01378 -0.04479,0 -0.08613,-0.01723 -0.04134,-0.02067 -0.05857,-0.05857 -0.01723,-0.0069 -0.03101,-0.0069 -0.01378,0 -0.03101,0 -0.05512,0 -0.110243,0.01378 -0.05168,0.01034 -0.106798,0.02756 -0.05512,0.01378 -0.110242,0.03101 -0.05168,0.01378 -0.106798,0.01723 -0.02067,0.02756 -0.05512,0.0379 -0.03445,0.01033 -0.05512,0.03789 -0.07235,0.01378 -0.130913,0.04823 -0.05857,0.03101 -0.113688,0.0689 -0.05168,0.03445 -0.106798,0.07235 -0.05168,0.03445 -0.117133,0.05857 -0.04823,0.05168 -0.08957,0.08268 -0.04134,0.03101 -0.106798,0.05512 -0.04134,0.01378 -0.04823,0.04134 -0.0034,0.02756 -0.02756,0.05512 -0.02067,0.02412 -0.05168,0.0379 -0.02756,0.01033 -0.04823,0.0379 -0.01723,0.02412 -0.02756,0.05857 -0.0069,0.03101 -0.01723,0.06201 -0.01033,0.03101 -0.02411,0.06201 -0.01378,0.02756 -0.04134,0.04823 0,0.01378 -0.0034,0.02756 0,0.01378 0,0.02412 0,0.04823 0.01033,0.09991 0.01378,0.04823 0.01722,0.09646 0.0689,0.120578 0.16192,0.220486 0.09302,0.09646 0.199815,0.179144 0.106797,0.08268 0.220485,0.155029 0.117133,0.07235 0.230821,0.141249 0.04134,-0.0034 0.07579,0.01033 0.03445,0.01034 0.07235,0.01378 0.04134,0.03101 0.09646,0.04823 0.05512,0.01722 0.110243,0.03445 0.05512,0.01723 0.106798,0.04134 0.05168,0.02067 0.08613,0.05857 0.01723,0.0034 0.03101,0.01033 0.01378,0.0034 0.03101,0.0034 0.02067,0 0.02411,-0.01378 0.155029,0.05857 0.303168,0.130913 0.148139,0.0689 0.313503,0.106798 0.06546,0.05512 0.144694,0.09646 0.07924,0.04134 0.158474,0.08613 0.07924,0.04134 0.151584,0.09302 0.07235,0.04823 0.127468,0.117133 0.0069,0.06546 0.02756,0.127468 0.02412,0.05857 0.02412,0.127469 z"
           style="font-style:normal;font-variant:normal;font-weight:normal;font-stretch:normal;font-size:3.52777px;font-family:'Rock Salt';-inkscape-font-specification:'Rock Salt, Normal';font-variant-ligatures:normal;font-variant-caps:normal;font-variant-numeric:normal;font-variant-east-asian:normal;stroke-width:0.151995"
           id="path849" />
        <path
           d="m 72.325893,55.710463 v 0.01378 q -0.02411,0.0069 -0.02411,0.03445 -0.0379,0.01723 -0.07924,0.02756 -0.04134,0.0069 -0.07924,0.02412 -0.0379,-0.0034 -0.07924,-0.0034 -0.0379,-0.0034 -0.07579,-0.0034 -0.103353,0 -0.206705,0.0069 -0.103353,0.0069 -0.206706,0 -0.04823,0.02756 -0.106797,0.04479 -0.05512,0.01378 -0.106798,0.01378 -0.04134,0 -0.07235,-0.01034 -0.08268,0.04134 -0.18259,0.0689 -0.09646,0.02756 -0.19637,0.05512 -0.09991,0.02412 -0.192925,0.05857 -0.08957,0.03101 -0.158474,0.08957 -0.0069,0.04823 -0.01034,0.09646 -0.0034,0.04479 -0.0034,0.08957 0,0.04823 0.0034,0.08957 0.0069,0.04134 0.02412,0.08268 0.01722,0.0069 0.0379,0.01034 0.02411,0.0034 0.04134,0.0034 0.01723,0 0.03445,-0.0034 0.01722,-0.0069 0.02412,-0.02412 0.05168,-0.0069 0.103353,-0.0034 0.05168,0 0.103352,0 0.05168,0 0.09991,-0.0034 0.05168,-0.0034 0.09991,-0.01722 0.05512,-0.01378 0.106797,-0.01723 0.05512,-0.0034 0.106798,-0.0069 0.05168,-0.0034 0.106798,-0.01034 0.05512,-0.01033 0.113688,-0.0379 0.04479,0.01722 0.08957,0.01722 0.04823,0 0.09302,0.0069 0.02412,0.01722 0.0379,0.0379 0.01723,0.02067 0.01723,0.04823 0,0.04823 -0.03445,0.09646 -0.03445,0.04823 -0.05512,0.08957 h -0.0379 q -0.08268,0 -0.161919,0.02411 -0.07579,0.02067 -0.155029,0.05168 -0.07579,0.02756 -0.155029,0.05168 -0.07579,0.02067 -0.158474,0.02067 -0.01378,0 -0.01722,0.01723 0,0.01378 -0.0069,0.02067 -0.01723,-0.0034 -0.05168,-0.0034 -0.07924,0 -0.151583,0.01723 -0.07235,0.01722 -0.148139,0.01722 -0.02067,0 -0.04134,0 -0.02067,-0.0034 -0.04134,-0.0069 -0.01723,0.02756 -0.04479,0.0379 -0.02756,0.0069 -0.05168,0.02756 -0.01033,0.031 -0.01378,0.07579 0,0.04479 -0.0034,0.09302 0,0.04479 -0.0069,0.08613 -0.0069,0.04134 -0.02756,0.06546 0.0034,0.01723 0.02756,0.01378 0.02411,-0.0069 0.02411,0.02067 0,0.03101 -0.0069,0.06546 -0.0069,0.03445 -0.0069,0.0689 0,0.06546 0.01378,0.144694 0.01723,0.07579 0.04823,0.141248 0.03445,0.06546 0.08957,0.110243 0.05512,0.04134 0.137803,0.04134 0.05512,0 0.103353,-0.02067 0.04823,-0.02067 0.07924,-0.0689 l 0.01722,-0.0034 q 0.01378,0 0.02412,0.0034 0.01378,0.0034 0.02756,0.0034 0.02067,0 0.05168,-0.02412 0.03445,-0.02756 0.07235,-0.06201 0.04134,-0.03445 0.08268,-0.06546 0.04134,-0.03445 0.07924,-0.04823 0.02412,-0.04823 0.04479,-0.09646 0.02412,-0.04823 0.0689,-0.07579 v -0.09991 q 0.03445,-0.0379 0.07235,-0.0689 0.04134,-0.03101 0.06201,-0.07924 0.01723,0.0069 0.03101,0.01033 0.01722,0.0034 0.03445,0.0034 0.01722,0 0.03445,-0.0034 0.02067,-0.0034 0.0379,-0.01033 0.02756,0.0379 0.04134,0.08613 0.01722,0.04479 0.04134,0.08613 -0.03101,0.06201 -0.07235,0.148138 -0.04134,0.08613 -0.08957,0.172255 -0.04823,0.08613 -0.103353,0.165364 -0.05168,0.07579 -0.103353,0.117133 -0.01033,0.01033 -0.04479,0.02412 -0.0379,0.02756 -0.0689,0.05168 -0.03101,0.02756 -0.05857,0.06201 -0.09991,0.03101 -0.192925,0.08268 -0.08957,0.05168 -0.179144,0.09991 -0.04134,-0.01033 -0.08957,-0.01033 -0.04134,0 -0.08268,0.0034 -0.04134,0.0069 -0.08957,0.0069 -0.01378,-0.01722 -0.04134,-0.02411 -0.02412,-0.0034 -0.01723,-0.03445 -0.117133,-0.0069 -0.189479,-0.06546 -0.07235,-0.05512 -0.124024,-0.137804 -0.04823,-0.08268 -0.07924,-0.179144 -0.031,-0.09646 -0.06546,-0.186035 v -0.01034 q 0,-0.01723 0.01378,-0.02067 0.01378,-0.0034 0.01378,-0.02067 0,-0.0069 -0.0034,-0.01034 -0.01033,-0.0379 -0.01722,-0.06546 -0.0069,-0.02756 -0.0069,-0.06546 0,-0.05512 0.0069,-0.106797 0.0069,-0.05512 0.0069,-0.110243 0,-0.05512 -0.01378,-0.09646 0.01378,-0.01723 0.02411,-0.04479 0.0069,-0.03101 0.01034,-0.06201 0.0034,-0.03101 0.0034,-0.06201 0.0034,-0.03101 0.01033,-0.05512 -0.01378,-0.0379 -0.02412,-0.06546 -0.01033,-0.03101 -0.01033,-0.07235 v -0.02412 q 0.03445,-0.05857 0.05857,-0.120578 0.02412,-0.06201 0.05168,-0.127468 v -0.01034 q 0,-0.09991 -0.0069,-0.199815 -0.0069,-0.09991 -0.0069,-0.199815 0,-0.03445 0,-0.06546 0,-0.03445 0.0034,-0.06546 0.02756,-0.01378 0.04134,-0.0379 0.01378,-0.02412 0.04134,-0.0379 h 0.113688 q 0.01033,-0.01722 0.02067,-0.03445 0.01034,-0.01723 0.01378,-0.0379 0.03789,-0.01033 0.07235,-0.02756 0.0379,-0.02067 0.0689,-0.04134 0.04823,-0.02756 0.08613,-0.04823 0.04134,-0.02412 0.07924,-0.0379 0.04134,-0.01723 0.08613,-0.02756 0.04479,-0.01033 0.103352,-0.01723 0.02756,0 0.03445,-0.01033 0.01033,-0.01033 0.02756,-0.02412 0.04134,0.0069 0.08268,0.01378 0.04134,0.0034 0.08268,0.0034 0.08268,0 0.155029,-0.03101 0.103353,0 0.20326,-0.0034 0.103353,-0.0034 0.206705,-0.0034 0.08957,0 0.179145,0.0069 0.08957,0.0069 0.175699,0.02412 0.03101,-0.01034 0.0689,-0.01034 0.04134,0 0.08268,0.01034 0.04479,0.0069 0.08613,0 0.0034,0.0379 0.01722,0.06546 0.01722,0.02412 0.01722,0.05857 z"
           style="font-style:normal;font-variant:normal;font-weight:normal;font-stretch:normal;font-size:3.52777px;font-family:'Rock Salt';-inkscape-font-specification:'Rock Salt, Normal';font-variant-ligatures:normal;font-variant-caps:normal;font-variant-numeric:normal;font-variant-east-asian:normal;stroke-width:0.151995"
           id="path851" />
        <path
           d="m 74.041547,57.016151 q 0,0.0379 -0.02756,0.05857 -0.02756,0.01723 -0.02756,0.04823 0,0.01378 0.01378,0.03445 -0.04823,0 -0.06546,0.03101 -0.01723,0.03101 -0.03445,0.0689 -0.02756,0 -0.04479,0 -0.01723,0 -0.02756,0.0069 -0.01033,0.0069 -0.02067,0.02067 -0.0069,0.01033 -0.02067,0.03445 -0.06546,0.01378 -0.127468,0.04479 -0.05857,0.02756 -0.117133,0.06201 -0.05512,0.03101 -0.113688,0.06546 -0.05857,0.03101 -0.120578,0.05168 -0.03101,0.05168 -0.08957,0.08268 h -0.01033 q -0.01722,0.0034 -0.03101,-0.0034 -0.01033,-0.01034 -0.02756,-0.01034 -0.01034,0 -0.01378,0.0034 -0.103352,0.0689 -0.230821,0.0689 -0.03445,0 -0.06546,-0.0034 -0.03101,-0.0069 -0.06546,-0.0069 -0.01033,0 -0.01378,0.0069 -0.0034,0.0069 -0.0069,0.01378 -0.0034,0.0069 -0.01033,0.01378 -0.0034,0.0069 -0.02412,0.0069 -0.0379,0 -0.07579,-0.01034 -0.0379,-0.01033 -0.07924,-0.0034 -0.07924,-0.04479 -0.124024,-0.08613 -0.04479,-0.04134 -0.08268,-0.124024 -0.01722,-0.0379 -0.04823,-0.07235 -0.02756,-0.03445 -0.04134,-0.07579 -0.0034,-0.01378 -0.01033,-0.04823 -0.0069,-0.0379 -0.01378,-0.07924 -0.0069,-0.04134 -0.01378,-0.07924 -0.0034,-0.0379 -0.0034,-0.05168 0,-0.04134 0.0034,-0.07924 0.0069,-0.04134 0.01378,-0.08268 0.02067,-0.130913 0.02756,-0.261827 0.01034,-0.134358 0.05857,-0.258381 -0.0069,-0.0379 -0.0069,-0.07235 0,-0.0379 0,-0.07579 0,-0.06546 -0.01722,-0.110243 0.02756,-0.04479 0.02756,-0.09991 0,-0.06201 -0.05168,-0.07235 v -0.01034 q 0,-0.07235 -0.04823,-0.113688 0,-0.120578 0.05857,-0.179144 0.06201,-0.06201 0.161919,-0.106798 0.01378,-0.02067 0.01033,-0.03445 0.02412,0.0069 0.04479,0.01378 0.02067,0.0069 0.04134,0.0069 0.03445,0 0.06201,-0.01033 0.01033,0.04134 0.05168,0.05168 0.04479,0.0069 0.07235,0.02067 v 0.04479 q 0,0.106797 0.05168,0.20326 -0.01378,0.02756 -0.01723,0.05857 -0.0034,0.03101 -0.0034,0.05857 0,0.04134 0.0034,0.08268 0.0034,0.04134 0.0034,0.07924 0,0.04134 -0.01033,0.08268 -0.0069,0.04134 -0.0379,0.07235 -0.0034,0.04479 -0.0069,0.103352 0,0.05512 -0.0069,0.113688 -0.0034,0.05857 -0.01722,0.113688 -0.01378,0.05512 -0.04134,0.08957 -0.0034,0.05168 -0.0069,0.106797 0,0.05168 0,0.09991 0,0.07579 0.0069,0.179144 0.01033,0.103353 0.04823,0.172255 0.01723,0.02756 0.06546,0.04134 0.05168,0.01378 0.08268,0.01378 0.0379,0 0.07579,-0.01033 0.04134,-0.01378 0.05857,-0.04479 0.02067,0.0034 0.02756,0.02067 0.0069,0.01723 0.02412,0.02756 0.19637,-0.08268 0.39274,-0.158474 0.19637,-0.07579 0.38585,-0.1757 0.02756,0.01378 0.05857,0.01378 0.03445,0 0.0689,-0.0069 0.03445,-0.0069 0.0689,-0.0069 h 0.02411 q 0.0069,0.02067 0.0069,0.03101 z"
           style="font-style:normal;font-variant:normal;font-weight:normal;font-stretch:normal;font-size:3.52777px;font-family:'Rock Salt';-inkscape-font-specification:'Rock Salt, Normal';font-variant-ligatures:normal;font-variant-caps:normal;font-variant-numeric:normal;font-variant-east-asian:normal;stroke-width:0.151995"
           id="path853" />
        <path
           d="m 76.198174,55.710463 v 0.01378 q -0.02412,0.0069 -0.02412,0.03445 -0.0379,0.01723 -0.07924,0.02756 -0.04134,0.0069 -0.07924,0.02412 -0.0379,-0.0034 -0.07924,-0.0034 -0.0379,-0.0034 -0.07579,-0.0034 -0.103353,0 -0.206705,0.0069 -0.103353,0.0069 -0.206706,0 -0.04823,0.02756 -0.106797,0.04479 -0.05512,0.01378 -0.106798,0.01378 -0.04134,0 -0.07235,-0.01034 -0.08268,0.04134 -0.18259,0.0689 -0.09646,0.02756 -0.19637,0.05512 -0.09991,0.02412 -0.192925,0.05857 -0.08957,0.03101 -0.158474,0.08957 -0.0069,0.04823 -0.01033,0.09646 -0.0034,0.04479 -0.0034,0.08957 0,0.04823 0.0034,0.08957 0.0069,0.04134 0.02412,0.08268 0.01722,0.0069 0.0379,0.01034 0.02412,0.0034 0.04134,0.0034 0.01723,0 0.03445,-0.0034 0.01722,-0.0069 0.02411,-0.02412 0.05168,-0.0069 0.103353,-0.0034 0.05168,0 0.103353,0 0.05168,0 0.09991,-0.0034 0.05168,-0.0034 0.09991,-0.01722 0.05512,-0.01378 0.106797,-0.01723 0.05512,-0.0034 0.106798,-0.0069 0.05168,-0.0034 0.106798,-0.01034 0.05512,-0.01033 0.113688,-0.0379 0.04479,0.01722 0.08957,0.01722 0.04823,0 0.09302,0.0069 0.02412,0.01722 0.0379,0.0379 0.01723,0.02067 0.01723,0.04823 0,0.04823 -0.03445,0.09646 -0.03445,0.04823 -0.05512,0.08957 h -0.0379 q -0.08268,0 -0.16192,0.02411 -0.07579,0.02067 -0.155029,0.05168 -0.07579,0.02756 -0.155029,0.05168 -0.07579,0.02067 -0.158474,0.02067 -0.01378,0 -0.01723,0.01723 0,0.01378 -0.0069,0.02067 -0.01723,-0.0034 -0.05168,-0.0034 -0.07924,0 -0.151584,0.01723 -0.07235,0.01722 -0.148139,0.01722 -0.02067,0 -0.04134,0 -0.02067,-0.0034 -0.04134,-0.0069 -0.01723,0.02756 -0.04479,0.0379 -0.02756,0.0069 -0.05168,0.02756 -0.01033,0.031 -0.01378,0.07579 0,0.04479 -0.0034,0.09302 0,0.04479 -0.0069,0.08613 -0.0069,0.04134 -0.02756,0.06546 0.0034,0.01723 0.02756,0.01378 0.02412,-0.0069 0.02412,0.02067 0,0.03101 -0.0069,0.06546 -0.0069,0.03445 -0.0069,0.0689 0,0.06546 0.01378,0.144694 0.01723,0.07579 0.04823,0.141248 0.03445,0.06546 0.08957,0.110243 0.05512,0.04134 0.137803,0.04134 0.05512,0 0.103353,-0.02067 0.04823,-0.02067 0.07924,-0.0689 l 0.01722,-0.0034 q 0.01378,0 0.02412,0.0034 0.01378,0.0034 0.02756,0.0034 0.02067,0 0.05168,-0.02412 0.03445,-0.02756 0.07235,-0.06201 0.04134,-0.03445 0.08268,-0.06546 0.04134,-0.03445 0.07924,-0.04823 0.02412,-0.04823 0.04479,-0.09646 0.02412,-0.04823 0.0689,-0.07579 v -0.09991 q 0.03445,-0.0379 0.07235,-0.0689 0.04134,-0.03101 0.06201,-0.07924 0.01723,0.0069 0.03101,0.01033 0.01723,0.0034 0.03445,0.0034 0.01722,0 0.03445,-0.0034 0.02067,-0.0034 0.0379,-0.01033 0.02756,0.0379 0.04134,0.08613 0.01723,0.04479 0.04134,0.08613 -0.03101,0.06201 -0.07235,0.148138 -0.04134,0.08613 -0.08957,0.172255 -0.04823,0.08613 -0.103353,0.165364 -0.05168,0.07579 -0.103352,0.117133 -0.01034,0.01033 -0.04479,0.02412 -0.0379,0.02756 -0.0689,0.05168 -0.03101,0.02756 -0.05857,0.06201 -0.09991,0.03101 -0.192925,0.08268 -0.08957,0.05168 -0.179144,0.09991 -0.04134,-0.01033 -0.08957,-0.01033 -0.04134,0 -0.08268,0.0034 -0.04134,0.0069 -0.08957,0.0069 -0.01378,-0.01722 -0.04134,-0.02411 -0.02412,-0.0034 -0.01722,-0.03445 -0.117133,-0.0069 -0.18948,-0.06546 -0.07235,-0.05512 -0.124023,-0.137804 -0.04823,-0.08268 -0.07924,-0.179144 -0.03101,-0.09646 -0.06546,-0.186035 v -0.01034 q 0,-0.01723 0.01378,-0.02067 0.01378,-0.0034 0.01378,-0.02067 0,-0.0069 -0.0034,-0.01034 -0.01033,-0.0379 -0.01722,-0.06546 -0.0069,-0.02756 -0.0069,-0.06546 0,-0.05512 0.0069,-0.106797 0.0069,-0.05512 0.0069,-0.110243 0,-0.05512 -0.01378,-0.09646 0.01378,-0.01723 0.02411,-0.04479 0.0069,-0.03101 0.01034,-0.06201 0.0034,-0.03101 0.0034,-0.06201 0.0034,-0.03101 0.01034,-0.05512 -0.01378,-0.0379 -0.02412,-0.06546 -0.01033,-0.03101 -0.01033,-0.07235 v -0.02412 q 0.03445,-0.05857 0.05857,-0.120578 0.02411,-0.06201 0.05168,-0.127468 v -0.01034 q 0,-0.09991 -0.0069,-0.199815 -0.0069,-0.09991 -0.0069,-0.199815 0,-0.03445 0,-0.06546 0,-0.03445 0.0034,-0.06546 0.02756,-0.01378 0.04134,-0.0379 0.01378,-0.02412 0.04134,-0.0379 h 0.113688 q 0.01033,-0.01722 0.02067,-0.03445 0.01034,-0.01723 0.01378,-0.0379 0.0379,-0.01033 0.07235,-0.02756 0.0379,-0.02067 0.0689,-0.04134 0.04823,-0.02756 0.08613,-0.04823 0.04134,-0.02412 0.07924,-0.0379 0.04134,-0.01723 0.08613,-0.02756 0.04479,-0.01033 0.103352,-0.01723 0.02756,0 0.03445,-0.01033 0.01033,-0.01033 0.02756,-0.02412 0.04134,0.0069 0.08268,0.01378 0.04134,0.0034 0.08268,0.0034 0.08268,0 0.155029,-0.03101 0.103353,0 0.20326,-0.0034 0.103353,-0.0034 0.206706,-0.0034 0.08957,0 0.179144,0.0069 0.08957,0.0069 0.1757,0.02412 0.031,-0.01034 0.0689,-0.01034 0.04134,0 0.08268,0.01034 0.04479,0.0069 0.08613,0 0.0034,0.0379 0.01722,0.06546 0.01723,0.02412 0.01723,0.05857 z"
           style="font-style:normal;font-variant:normal;font-weight:normal;font-stretch:normal;font-size:3.52777px;font-family:'Rock Salt';-inkscape-font-specification:'Rock Salt, Normal';font-variant-ligatures:normal;font-variant-caps:normal;font-variant-numeric:normal;font-variant-east-asian:normal;stroke-width:0.151995"
           id="path855" />
        <path
           d="m 78.620069,57.281423 q 0,0.03445 -0.02067,0.05857 -0.01722,0.02067 -0.04479,0.03789 -0.02412,0.01723 -0.05168,0.03101 -0.02412,0.01378 -0.04479,0.03445 -0.01378,0.01378 -0.02067,0.03445 -0.0034,0.01723 -0.01722,0.02412 -0.02067,0.01723 -0.04479,0.02067 -0.02411,0.0034 -0.05168,0.01033 -0.02412,0.0034 -0.04823,0.01378 -0.02412,0.0069 -0.04134,0.03101 -0.161919,0.01723 -0.320393,0.04479 -0.155029,0.02756 -0.320394,0.02756 -0.03101,0 -0.0689,0.0069 -0.03445,0.0034 -0.06546,0.0069 -0.07235,0.0069 -0.144694,0.01033 -0.0689,0.0034 -0.141248,0.0034 -0.09991,0 -0.199815,-0.0069 -0.09991,-0.01033 -0.19637,-0.03101 -0.02412,-0.01723 -0.05512,-0.02756 -0.03101,-0.01033 -0.06546,-0.02067 -0.03101,-0.01034 -0.05857,-0.02412 -0.02756,-0.01378 -0.04134,-0.04134 -0.05168,-0.0034 -0.09302,-0.02067 -0.0379,-0.01723 -0.07235,-0.0379 -0.03101,-0.02412 -0.06546,-0.04823 -0.03445,-0.02412 -0.07924,-0.04134 -0.03445,-0.04823 -0.07235,-0.09302 -0.03445,-0.04823 -0.08613,-0.07924 -0.01033,-0.06546 -0.03445,-0.130913 -0.02067,-0.06546 -0.04479,-0.127469 -0.02067,-0.06546 -0.03445,-0.130913 -0.01723,-0.06546 -0.01723,-0.134358 0,-0.04823 0.01378,-0.117133 0.01378,-0.0689 0.03445,-0.137804 0.02412,-0.07235 0.05512,-0.134358 0.03101,-0.06201 0.06201,-0.09991 0.01033,-0.01033 0.02411,-0.01722 0.01378,-0.0069 0.02412,-0.02067 0.03101,-0.03445 0.06546,-0.05512 0.03445,-0.02412 0.07235,-0.05512 0.01378,-0.01378 0.02067,-0.03101 0.01033,-0.01723 0.02756,-0.03101 0.01033,-0.0069 0.02756,-0.0034 0.02067,0.0034 0.03445,-0.0069 0.01378,-0.01034 0.01378,-0.02412 0,-0.01378 0.01033,-0.02412 0.0034,-0.0034 0.02067,0 0.01723,0 0.02067,0 0.02412,0 0.05512,-0.03101 0.031,-0.03445 0.05168,-0.04479 0.02411,-0.01378 0.04823,-0.01723 0.02412,-0.0069 0.05168,-0.02067 0.0379,-0.02067 0.07235,-0.03101 0.0379,-0.01378 0.07579,-0.03101 0.02067,-0.0069 0.0379,-0.02412 0.01723,-0.01723 0.03445,-0.02412 0.03101,-0.01034 0.06546,-0.01378 0.0379,-0.0069 0.0689,-0.01033 0.03445,-0.0069 0.06546,-0.01378 0.03445,-0.01034 0.06201,-0.03445 h 0.02756 q 0.06201,0 0.120578,-0.01723 0.05857,-0.01722 0.120579,-0.01722 0.01722,0 0.05168,0.0069 0.02756,-0.01723 0.06201,-0.01723 0.05857,0 0.117133,0.03101 0.05857,0.02756 0.120579,0.02756 0.01033,0 0.02067,0 0.01378,0 0.02756,-0.0034 0.0379,0.0379 0.08957,0.04134 0.05512,0.0034 0.09302,0.03101 0.02412,0.02067 0.0379,0.04823 0.01723,0.02756 0.02756,0.05857 0.01034,0.03101 0.02067,0.06201 0.01033,0.03101 0.02756,0.05512 -0.01722,0.124023 -0.103352,0.199815 -0.08268,0.07235 -0.210151,0.07235 -0.04823,0 -0.08268,-0.01034 -0.03101,-0.01378 -0.05857,-0.02756 -0.02412,-0.01378 -0.05168,-0.02756 -0.02756,-0.01378 -0.06201,-0.02067 0.0379,-0.0689 0.04823,-0.148138 -0.0379,-0.01723 -0.07579,-0.02412 -0.0379,-0.0069 -0.07235,-0.02412 -0.09302,0.02412 -0.182589,0.03445 -0.08613,0.0069 -0.16192,0.07235 -0.01722,-0.0034 -0.0379,-0.0069 -0.01722,-0.0034 -0.03445,-0.0034 -0.02067,0 -0.08268,0.03101 -0.06201,0.02756 -0.134358,0.06546 -0.0689,0.0379 -0.134358,0.07579 -0.06201,0.0379 -0.08613,0.05168 -0.02756,0.01722 -0.04823,0.04134 -0.02067,0.02412 -0.04134,0.05168 -0.02067,0.02412 -0.04134,0.04823 -0.02067,0.02067 -0.05168,0.03101 -0.0069,0.0379 -0.02412,0.06546 -0.01722,0.02756 -0.0379,0.05857 -0.0034,0.06201 -0.01378,0.124023 -0.0069,0.06201 -0.0069,0.124023 0,0.02412 0,0.04479 0,0.02067 0.0069,0.0379 0.03445,0.04479 0.05512,0.09991 0.02412,0.05512 0.07924,0.07579 0.0034,0.01378 -0.0034,0.01723 -0.0034,0.0034 -0.0069,0.01723 0.02067,0.0379 0.05168,0.06201 0.03445,0.02067 0.0689,0.04479 0.03445,0.02067 0.06546,0.04479 0.03101,0.02411 0.04823,0.06201 0.05168,0 0.09646,0.01723 0.04823,0.01722 0.08957,0.0379 0.04479,0.02067 0.08268,0.0379 0.04134,0.01722 0.08268,0.01722 0.0379,0 0.0689,-0.01033 0.08957,0.02756 0.179144,0.04134 0.09302,0.01033 0.186035,0.01033 0.113688,0 0.227376,-0.01378 0.113688,-0.01378 0.227376,-0.02412 0.04134,-0.0069 0.07924,-0.0069 0.0379,0 0.07579,-0.0069 0.04823,-0.0069 0.08957,-0.04479 0.04479,-0.0379 0.08613,-0.05512 0.0379,0.02412 0.08957,0.02412 0.05857,0 0.113688,-0.01723 0.05512,-0.02067 0.113688,-0.02067 z"
           style="font-style:normal;font-variant:normal;font-weight:normal;font-stretch:normal;font-size:3.52777px;font-family:'Rock Salt';-inkscape-font-specification:'Rock Salt, Normal';font-variant-ligatures:normal;font-variant-caps:normal;font-variant-numeric:normal;font-variant-east-asian:normal;stroke-width:0.151995"
           id="path857" />
        <path
           d="m 81.558729,55.686347 q -0.01378,0.04479 -0.04479,0.08268 -0.02756,0.03445 -0.05857,0.07235 -0.02756,0.03445 -0.04823,0.07579 -0.01723,0.0379 -0.01033,0.08957 -0.0069,0 -0.01723,0 -0.01033,-0.0034 -0.01722,-0.0034 -0.05512,0 -0.08613,0.02756 -0.02756,0.02412 -0.07579,0.04134 -0.0069,-0.02067 -0.01723,-0.0379 -0.01034,-0.02067 -0.03101,-0.02756 -0.08268,0.01723 -0.165364,0.02756 -0.08268,0.0069 -0.165364,0.02067 -0.0379,0.0069 -0.07579,0.02067 -0.0379,0.01034 -0.07924,0.02067 -0.02067,0.0069 -0.04479,0.0069 -0.02412,-0.0034 -0.04823,0 -0.08268,0.0034 -0.179145,0.01378 -0.09646,0.0069 -0.172254,0.05168 -0.03445,-0.0069 -0.07235,-0.01034 -0.0379,-0.0034 -0.07579,-0.0034 -0.08268,0 -0.18259,0.01723 -0.09646,0.01378 -0.172254,0.05857 -0.01723,-0.0069 -0.0379,-0.01033 -0.01723,-0.0034 -0.04134,-0.0034 -0.0069,0 -0.01034,0.0034 -0.0034,0 -0.01033,0 -0.0034,0.03101 0.0069,0.06201 0.01378,0.02756 0.04479,0.04479 -0.01378,0.0379 -0.01378,0.08268 0,0.05857 0.0069,0.117133 0.01034,0.05857 0.01034,0.117133 0,0.06546 -0.01723,0.103352 0.03445,0.103353 0.03445,0.220486 0,0.04134 -0.0069,0.08268 -0.0034,0.0379 -0.0034,0.08268 0,0.0379 0.02756,0.06201 0.02756,0.02067 0.02756,0.05857 0,0.01378 -0.0069,0.02756 0.04823,-0.01033 0.09302,-0.02756 0.04479,-0.02067 0.09302,-0.02067 0.02756,0 0.05168,0.01033 0.02756,0.01033 0.04823,0.02756 -0.0034,0.01723 -0.0069,0.0379 0,0.02067 0,0.04134 0,0.0379 0,0.07235 0.0034,0.03101 0.0069,0.0689 -0.02756,0.04823 -0.06546,0.08613 -0.03445,0.0379 -0.04823,0.09646 -0.05168,0 -0.09302,0.02412 -0.0379,0.02067 -0.07235,0.04823 -0.03445,0.02412 -0.0689,0.04823 -0.03445,0.02067 -0.07579,0.02067 -0.05168,0 -0.07235,-0.01378 -0.02067,-0.01723 -0.03101,-0.03445 -0.01033,-0.01723 -0.02067,-0.03101 -0.0069,-0.01378 -0.03445,-0.01034 -0.0069,-0.04479 -0.02756,-0.08268 -0.02067,-0.04134 -0.04479,-0.07924 -0.02067,-0.0379 -0.04479,-0.07579 -0.02067,-0.04134 -0.03101,-0.08268 -0.02067,-0.08957 -0.01723,-0.186035 0.0034,-0.09646 -0.03101,-0.186034 0.0069,-0.04823 0.01034,-0.09646 0.0034,-0.05168 0.0034,-0.09991 0,-0.09646 -0.0069,-0.18948 -0.0034,-0.09646 -0.0069,-0.19637 -0.02411,-0.03101 -0.031,-0.0689 -0.0034,-0.04134 -0.0069,-0.07924 -0.01033,-0.01034 -0.02411,-0.02067 -0.01033,-0.01034 -0.01378,-0.02756 -0.02756,-0.0069 -0.04134,-0.0069 -0.04823,0 -0.08268,0.02411 -0.031,0.02067 -0.05857,0.02067 -0.02756,0 -0.05168,-0.0069 -0.02412,-0.0069 -0.04823,-0.0069 -0.02067,0 -0.02411,0.01034 0,0.0069 -0.01378,0.01378 -0.01033,0.0069 -0.04823,0.01378 -0.0379,0.0069 -0.08613,0.01378 -0.04479,0.0034 -0.08957,0.0069 -0.04134,0.0034 -0.05512,0.0034 -0.05512,0 -0.08268,-0.02067 -0.03101,-0.02411 -0.07235,-0.05168 0.0069,-0.02067 0.0069,-0.02756 0,-0.03445 -0.02067,-0.05512 -0.02067,-0.02412 -0.02067,-0.04134 0,-0.0379 0.03101,-0.05857 0.02756,-0.02067 0.03101,-0.06546 0.07924,-0.03445 0.161919,-0.05168 0.08268,-0.01723 0.168809,-0.02756 0.08613,-0.01034 0.16881,-0.02412 0.08613,-0.01378 0.168809,-0.04479 0.02412,0.0034 0.04479,0.0069 0.02412,0 0.04823,0 0.103353,0 0.203261,-0.02067 0.103352,-0.02412 0.21015,-0.02412 0.02756,0 0.05512,0.0034 0.02756,0.0034 0.05512,0.01034 0.137803,-0.02067 0.272162,-0.04479 0.137803,-0.02412 0.282497,-0.04134 0.0689,-0.0069 0.134358,-0.01033 0.0689,-0.0069 0.137804,-0.01723 0.02411,-0.0034 0.03445,-0.01034 0.01378,-0.01033 0.01378,-0.0379 0.03101,0.01378 0.0689,0.01378 0.05857,0 0.113688,-0.02067 0.05512,-0.02067 0.113688,-0.02067 0.01378,0 0.02411,0.0034 0.01034,0 0.02067,0 0.02411,0 0.02411,-0.02067 0.0034,-0.02412 0.03445,-0.03101 0.02412,-0.0069 0.0689,-0.01033 0.04479,-0.0034 0.09302,-0.0069 0.05168,-0.0069 0.09302,-0.01378 0.04479,-0.01034 0.06546,-0.02756 l 0.02412,-0.0379 q 0.06201,0.0034 0.08957,0.05512 0.03101,0.04823 0.03445,0.106798 0.01378,0.01378 0.0379,0.01378 0.02756,-0.0034 0.04823,-0.0034 z"
           style="font-style:normal;font-variant:normal;font-weight:normal;font-stretch:normal;font-size:3.52777px;font-family:'Rock Salt';-inkscape-font-specification:'Rock Salt, Normal';font-variant-ligatures:normal;font-variant-caps:normal;font-variant-numeric:normal;font-variant-east-asian:normal;stroke-width:0.151995"
           id="path859" />
        <path
           d="m 81.824001,57.429562 q -0.01722,0.02756 -0.04134,0.05168 -0.02412,0.02067 -0.04479,0.04479 -0.02412,0.01034 -0.05512,0.01034 -0.02756,0 -0.05512,0 -0.02411,-0.0034 -0.04823,0 -0.02067,0 -0.03445,0.01378 -0.02756,-0.0069 -0.04134,-0.02412 -0.01378,-0.02067 -0.04823,-0.02412 -0.01378,-0.0034 -0.02756,0 -0.05168,-0.05857 -0.09646,-0.124024 -0.04134,-0.06546 -0.07924,-0.124023 -0.0034,-0.127468 -0.02067,-0.258381 -0.0034,-0.03101 -0.01034,-0.06201 -0.0069,-0.03101 -0.01033,-0.05857 0,-0.03445 0.0034,-0.06546 0.0069,-0.03445 0.01034,-0.06201 0.01378,-0.09991 0.03101,-0.19637 0.01722,-0.09646 0.03101,-0.19637 0.01378,-0.08957 0.01378,-0.186034 0,-0.09991 -0.03101,-0.186035 l -0.0034,-0.01723 q 0.0069,-0.02756 0.01378,-0.04479 0.01034,-0.02067 0.01378,-0.04479 0.0069,-0.0379 -0.01723,-0.05512 0.01034,-0.02756 0.03445,-0.03445 0.02412,-0.01033 0.02756,-0.04134 0.0034,-0.01378 0,-0.02756 0.02756,-0.01034 0.05512,-0.01723 0.03101,-0.01034 0.05857,-0.0034 0.04479,0.0069 0.07924,0.03101 0.03445,0.02067 0.06546,0.04823 0.05512,0.165364 0.04479,0.351399 -0.01034,0.182589 -0.03445,0.368624 -0.02412,0.186035 -0.03101,0.365179 -0.0069,0.1757 0.05512,0.327284 l 0.0069,0.0034 q 0.01722,0.0034 0.02756,-0.01034 0.01033,-0.01722 0.02756,-0.01378 0.01378,0.0069 0.01722,0.0069 0.01378,0.0689 0.04479,0.130914 0.03101,0.06201 0.0689,0.124023 z"
           style="font-style:normal;font-variant:normal;font-weight:normal;font-stretch:normal;font-size:3.52777px;font-family:'Rock Salt';-inkscape-font-specification:'Rock Salt, Normal';font-variant-ligatures:normal;font-variant-caps:normal;font-variant-numeric:normal;font-variant-east-asian:normal;stroke-width:0.151995"
           id="path861" />
        <path
           d="m 84.33547,55.906833 q -0.02067,0.03101 -0.02411,0.0689 -0.0034,0.0379 -0.0034,0.0689 0,0.04134 0,0.08268 0.0034,0.0379 0.0034,0.07579 v 0.05168 q -0.0069,0.02412 -0.02067,0.04823 -0.01378,0.02412 -0.02067,0.04823 -0.04823,0.127469 -0.04823,0.254937 v 0.0069 q -0.01723,0.04134 -0.03445,0.07579 -0.01378,0.03445 -0.02756,0.0689 -0.01378,0.03101 -0.02067,0.0689 -0.0069,0.03445 -0.0034,0.08268 -0.04823,0.120578 -0.127468,0.220485 -0.07924,0.09646 -0.155029,0.199815 -0.07235,0.02756 -0.134359,0.07235 -0.05857,0.04479 -0.113687,0.09991 -0.106798,0.03445 -0.210151,0.07924 -0.103352,0.04479 -0.186035,0.120578 -0.06546,0.0069 -0.130913,0.02067 -0.06546,0.01378 -0.127468,0.04134 h -0.04134 q -0.03101,0 -0.04479,-0.01378 -0.04479,0.02412 -0.09302,0.03445 -0.04823,0.0069 -0.09646,0.0069 -0.06201,0 -0.124023,-0.0069 -0.05857,-0.01033 -0.120578,-0.02067 -0.03445,-0.04823 -0.09646,-0.07235 -0.06201,-0.02756 -0.110243,-0.05168 -0.09991,-0.137803 -0.144693,-0.265272 -0.04479,-0.130913 -0.09302,-0.292832 0.0069,-0.04823 0.02412,-0.09302 0.01722,-0.04823 0.01378,-0.103353 0.06201,-0.179145 0.161919,-0.323838 0.103353,-0.148139 0.234266,-0.282498 0,-0.02067 0.0069,-0.03445 0.01034,-0.01378 0.0034,-0.04134 0.0034,0.0034 0.01378,0.0034 0.02756,0 0.03445,-0.01378 0.0069,-0.01722 0.0034,-0.0379 0.124023,-0.07924 0.223931,-0.182589 0.103352,-0.103353 0.234266,-0.172255 0.01034,-0.03101 0.03445,-0.05168 0.02412,-0.02067 0.0379,-0.04823 0.110243,-0.03101 0.199816,-0.09302 0.08957,-0.06201 0.189479,-0.110243 0.05512,-0.03101 0.103353,-0.04134 0.05168,-0.01378 0.110243,-0.02756 0.02067,-0.0069 0.0379,-0.01034 0.01722,-0.0034 0.0379,-0.0034 0.06201,0 0.120578,0.02412 0.05857,0.02067 0.120578,0.02067 0.01722,0 0.02756,0 0.01378,-0.0034 0.02756,-0.0069 0.05857,0.07235 0.148139,0.110243 0.02067,0.05168 0.04823,0.08957 0.03101,0.0379 0.06201,0.07579 0.03101,0.03445 0.05512,0.07924 0.02756,0.04134 0.03445,0.09991 z m -0.344509,0.179145 q 0,-0.01723 -0.0034,-0.03101 -0.03445,-0.01034 -0.06546,-0.02756 -0.03101,-0.01723 -0.0689,-0.01723 -0.02412,0 -0.04823,0.01034 -0.0034,-0.02412 -0.02067,-0.03445 -0.01378,-0.01033 -0.03445,-0.01722 -0.01722,-0.01034 -0.0379,-0.01378 -0.01723,-0.0069 -0.03101,-0.02067 -0.01033,-0.02756 -0.02411,-0.05512 -0.01034,-0.03101 -0.04134,-0.04479 -0.03101,0.03101 -0.07235,0.05168 -0.04134,0.01723 -0.08613,0.03445 -0.04134,0.01723 -0.08268,0.04134 -0.0379,0.02412 -0.06546,0.05857 h -0.06201 q -0.02067,0.0379 -0.05857,0.05857 -0.0379,0.01723 -0.06546,0.05168 -0.05512,0.02756 -0.103352,0.0689 -0.04479,0.0379 -0.08957,0.08268 -0.04479,0.04134 -0.08957,0.08613 -0.04134,0.04479 -0.08957,0.08268 -0.04479,0.09646 -0.09991,0.168809 -0.05168,0.0689 -0.09991,0.141249 -0.04479,0.07235 -0.07924,0.158474 -0.03101,0.08268 -0.03101,0.206705 0,0.01723 0,0.03445 0,0.01722 0.0034,0.03445 0.04479,0.04823 0.07235,0.103352 0.03101,0.05512 0.09991,0.07924 0.0689,0.02756 0.144694,0.02412 0.07924,-0.0034 0.151584,0.01723 0.165364,-0.03101 0.316948,-0.09991 0.155029,-0.07235 0.292832,-0.172254 0.02067,-0.01723 0.04823,-0.03445 0.02756,-0.02067 0.04479,-0.04134 0.01722,-0.01723 0.02756,-0.0379 0.01378,-0.02067 0.02756,-0.0379 0.02756,-0.04479 0.06201,-0.08957 0.03445,-0.04479 0.07235,-0.08268 0.01722,-0.07579 0.04479,-0.144693 0.02756,-0.07235 0.05512,-0.141249 0.02756,-0.0689 0.04479,-0.141249 0.02067,-0.07235 0.02067,-0.151583 0,-0.01723 -0.0034,-0.0379 0,-0.02067 -0.0034,-0.0379 0.02756,-0.0379 0.02756,-0.08268 z"
           style="font-style:normal;font-variant:normal;font-weight:normal;font-stretch:normal;font-size:3.52777px;font-family:'Rock Salt';-inkscape-font-specification:'Rock Salt, Normal';font-variant-ligatures:normal;font-variant-caps:normal;font-variant-numeric:normal;font-variant-east-asian:normal;stroke-width:0.151995"
           id="path863" />
        <path
           d="m 86.840051,55.638116 q -0.0069,0.04134 -0.02067,0.07235 -0.01033,0.02756 -0.0034,0.07579 -0.03445,0.0034 -0.05512,0.02412 -0.01723,0.01723 -0.03101,0.04134 -0.01034,0.02412 -0.02412,0.05168 -0.01033,0.02412 -0.02756,0.04479 0.02756,0.124023 0.03101,0.251491 0.0034,0.127469 0.01723,0.251492 0.01722,0.158474 0.05168,0.313503 0.0379,0.151584 0.0379,0.310058 0,0.04823 -0.0034,0.08957 0,0.04134 0,0.08613 0,0.02756 0,0.05857 0.0034,0.02756 0.0034,0.05512 0,0.09991 -0.02756,0.199815 -0.02412,0.09991 -0.0379,0.199815 -0.04134,0.0379 -0.07235,0.08268 -0.02756,0.04479 -0.05857,0.08268 -0.03101,0.0379 -0.07235,0.06546 -0.04134,0.03101 -0.103353,0.04134 -0.01033,0.03445 -0.04134,0.05168 -0.02756,0.01723 -0.04823,0.04823 h -0.0069 q -0.08613,0 -0.148139,-0.02412 -0.06201,-0.02412 -0.117133,-0.05512 -0.05168,-0.03101 -0.106797,-0.06546 -0.05512,-0.03445 -0.127469,-0.05512 -0.09646,-0.07924 -0.175699,-0.172255 -0.07924,-0.09646 -0.179145,-0.172254 -0.02411,-0.0689 -0.06546,-0.113688 -0.0379,-0.04479 -0.07579,-0.103353 -0.01723,-0.02412 -0.02756,-0.04479 -0.0069,-0.02067 -0.02067,-0.04823 -0.01033,-0.02756 -0.03445,-0.0379 -0.02067,-0.01033 -0.0379,-0.02412 -0.02756,-0.106797 -0.07924,-0.19637 -0.05168,-0.08957 -0.120579,-0.172254 -0.02067,0.0379 -0.03445,0.08268 -0.01034,0.04134 -0.02067,0.08613 -0.01033,0.04134 -0.02756,0.08613 -0.01378,0.04134 -0.0379,0.07579 v 0.01034 q 0,0.01723 0.01378,0.02067 0.01378,0.0034 0.01378,0.02067 0,0.0034 -0.0034,0.0069 0,0.0034 0,0.0069 -0.01722,0.01378 -0.02756,0.03445 -0.0069,0.02067 -0.03445,0.02412 0.0034,0.01722 0.0034,0.03445 0,0.01378 0,0.03101 0,0.09991 -0.02412,0.199815 -0.02067,0.09991 -0.02067,0.203261 0,0.02067 0,0.04479 0,0.02412 0.0034,0.04479 0.0069,0.02067 0.02067,0.04134 0.01378,0.02067 0.01378,0.0379 0,0.02412 -0.02067,0.04479 0.02412,0.01723 0.05512,0.0379 0.03101,0.02067 0.05512,0.04479 0.02756,0.02756 0.04479,0.05512 0.01723,0.03101 0.01723,0.06546 0,0.05857 -0.0379,0.08268 -0.0379,0.02412 -0.09302,0.0379 -0.05168,0.01378 -0.110243,0.02412 -0.05512,0.01378 -0.09302,0.04479 h -0.01034 q -0.04134,0 -0.06201,-0.02412 -0.02067,-0.02412 -0.06201,-0.02412 -0.06546,-0.106798 -0.08957,-0.241156 -0.02412,-0.130914 -0.02412,-0.251492 0,-0.148139 0.02756,-0.296277 0.02412,-0.148139 0.06201,-0.292833 0.03445,-0.144693 0.07579,-0.285942 0.04479,-0.144694 0.08268,-0.289387 0,-0.0034 0,-0.0034 0.0034,-0.0034 0.0034,-0.0069 0,-0.01723 -0.01034,-0.02412 -0.0069,-0.0069 -0.0069,-0.02067 0,-0.0069 0.0034,-0.0069 0.01034,-0.03445 0.02067,-0.06546 0.01378,-0.03101 0.02067,-0.0689 0.02067,-0.09646 0.02756,-0.19637 0.01033,-0.103353 0.01033,-0.203261 0.0034,-0.09991 0.0069,-0.199815 0.0069,-0.103352 0.02411,-0.20326 0.02756,-0.02756 0.05168,-0.05857 0.02412,-0.03101 0.06201,-0.05512 0.0689,0.0034 0.137804,0.02067 0.0689,0.01723 0.130913,0.05512 0.04134,0.148139 0.05512,0.296278 0.01723,0.148138 0.05512,0.296277 v 0.01033 q 0,0.01723 0.01722,0.01723 0.02067,-0.0034 0.03101,0.01033 -0.0069,0.01034 -0.01033,0.02412 0,0.01378 0,0.02756 v 0.05857 q 0.0069,0.02756 0.01722,0.05857 0.01033,0.03101 0.04479,0.0379 0.01723,0.110243 0.05168,0.203261 0.03445,0.09302 0.07924,0.179144 0.04479,0.08613 0.09646,0.172255 0.05168,0.08268 0.106798,0.175699 0.08613,0.06546 0.148139,0.151584 0.06201,0.08268 0.124023,0.161919 0.06546,0.07579 0.144693,0.134359 0.08268,0.05857 0.213596,0.07235 0.01722,-0.01378 0.02412,-0.0379 0.01034,-0.02411 0.01723,-0.04823 0.01033,-0.02412 0.02067,-0.04134 0.01378,-0.02067 0.0379,-0.03101 0.0069,-0.09646 0.01378,-0.19637 0.01033,-0.09991 0.04479,-0.18948 -0.01722,-0.03101 -0.01722,-0.07579 0,-0.03445 0.0034,-0.06546 0.0069,-0.03101 0.0069,-0.06201 0,-0.06546 -0.02756,-0.106797 0,-0.02412 0.0034,-0.04823 0.0034,-0.02756 0.02067,-0.05168 -0.02756,-0.0689 -0.04479,-0.144694 -0.01378,-0.07579 -0.01378,-0.155029 0,-0.04479 0.01033,-0.09302 -0.02067,-0.05168 -0.02756,-0.120578 -0.0069,-0.07235 -0.01378,-0.141249 -0.0069,-0.07235 -0.02067,-0.134358 -0.01378,-0.06201 -0.05168,-0.09991 0.02067,-0.03101 0.02067,-0.07235 0,-0.0689 -0.02067,-0.130913 -0.02067,-0.06201 -0.02067,-0.130913 0,-0.04823 0.02067,-0.09646 0.07579,0.0034 0.148138,0.01723 0.07579,0.01033 0.148139,0.01033 0.02067,0.02756 0.04823,0.04479 0.02756,0.01723 0.05857,0.03445 0.03101,0.01378 0.05857,0.03101 0.03101,0.01722 0.04823,0.04823 z"
           style="font-style:normal;font-variant:normal;font-weight:normal;font-stretch:normal;font-size:3.52777px;font-family:'Rock Salt';-inkscape-font-specification:'Rock Salt, Normal';font-variant-ligatures:normal;font-variant-caps:normal;font-variant-numeric:normal;font-variant-east-asian:normal;stroke-width:0.151995"
           id="path865" />
      </g>
      <g
         aria-label="/"
         id="text870"
         style="font-style:normal;font-variant:normal;font-weight:normal;font-stretch:normal;font-size:3.52777px;line-height:1.25;font-family:'Rock Salt';-inkscape-font-specification:'Rock Salt, Normal';font-variant-ligatures:normal;font-variant-caps:normal;font-variant-numeric:normal;font-variant-east-asian:normal;letter-spacing:0px;word-spacing:0px;stroke-width:0.0515935"
         transform="matrix(4.0576345,0.88398149,-7.6720978,0.46752191,582.1873,-17.265472)">
        <path
           d="m 40.454112,86.017418 q -0.0069,0.08268 -0.03101,0.161919 -0.02067,0.07579 -0.05168,0.151584 -0.02756,0.07579 -0.05857,0.151584 -0.02756,0.07235 -0.04134,0.155029 h -0.01378 q -0.01033,0 -0.02067,0.0034 -0.0069,0.0034 -0.01723,0.01033 0,0.0034 -0.0034,0.0069 0,0.0034 0,0.0069 0,0.01378 0.0034,0.02412 0.0069,0.01033 0.0069,0.01723 0,0.0069 -0.0034,0.01033 0,0 -0.0034,0.0069 -0.113688,0.18948 -0.20326,0.389295 -0.08957,0.199815 -0.18948,0.396185 -0.04134,0.07924 -0.08613,0.155029 -0.04134,0.07579 -0.08957,0.151584 -0.01723,0.02756 -0.0379,0.05168 -0.01722,0.02412 -0.03445,0.05168 -0.0069,0.0069 -0.01034,0.02412 0,0.01723 0,0.02412 0,0.02067 0.01034,0.04134 -0.03445,0.0034 -0.04823,0.02411 -0.01378,0.02067 -0.04134,0.03445 v 0.01034 q 0.0034,0.02756 -0.01378,0.05168 -0.01378,0.02412 -0.01033,0.05168 -0.06201,0.06201 -0.09991,0.144694 -0.0379,0.08268 -0.08268,0.158474 -0.01722,0.03101 -0.0379,0.05857 -0.02067,0.02412 -0.0379,0.04823 -0.01722,0.02756 -0.03101,0.06546 -0.01378,0.03445 -0.02756,0.06546 -0.01723,0.04134 -0.0689,0.144694 -0.04823,0.106797 -0.103353,0.220485 -0.05168,0.117133 -0.09646,0.213596 -0.04134,0.09991 -0.04134,0.130913 -0.0034,0.02756 -0.0034,0.05168 0.0034,0.02756 0.0034,0.05512 -0.04479,0.04134 -0.07924,0.08613 -0.03445,0.04479 -0.08268,0.07579 -0.04823,-0.01722 -0.09302,-0.04134 -0.04479,-0.02412 -0.09302,-0.04479 -0.02067,-0.03445 -0.02756,-0.07235 -0.0069,-0.03445 -0.03445,-0.06201 0,-0.0379 0.01723,-0.07235 0.01378,-0.03101 0.01378,-0.06546 0,-0.02067 -0.0069,-0.03445 0.01722,-0.0069 0.03101,-0.01723 0.01033,-0.0069 0.03445,-0.0069 -0.0034,-0.01033 -0.0034,-0.02756 0,-0.04823 0.05168,-0.07235 0.0034,-0.08957 0.0379,-0.16881 0.03445,-0.07579 0.07579,-0.151583 0.04134,-0.07579 0.08268,-0.151584 0.04134,-0.07579 0.06201,-0.158474 0.0379,-0.05857 0.0689,-0.110243 0.03101,-0.05512 0.04134,-0.127468 0.09991,-0.130914 0.18259,-0.265272 0.08613,-0.137804 0.141248,-0.303168 0.04479,-0.0379 0.07579,-0.08957 0.03101,-0.05512 0.05857,-0.110243 0.02756,-0.05512 0.05857,-0.106798 0.03101,-0.05168 0.07924,-0.08957 0.0069,-0.05512 0.02412,-0.103353 0.02067,-0.05168 0.04134,-0.09991 0.02412,-0.04823 0.04479,-0.09646 0.02412,-0.04823 0.0379,-0.103352 0.05512,-0.07924 0.09646,-0.16881 0.04134,-0.09302 0.07235,-0.186034 0.03445,-0.09646 0.06201,-0.18948 0.03101,-0.09646 0.06546,-0.186035 -0.0034,-0.01722 -0.0069,-0.03101 0,-0.01722 0,-0.03445 0,-0.141248 0.08957,-0.21015 0.09302,-0.07235 0.22393,-0.07235 0.04823,0.0379 0.08957,0.07579 0.04134,0.03445 0.08268,0.07235 z"
           style="font-style:normal;font-variant:normal;font-weight:normal;font-stretch:normal;font-size:3.52777px;font-family:'Rock Salt';-inkscape-font-specification:'Rock Salt, Normal';font-variant-ligatures:normal;font-variant-caps:normal;font-variant-numeric:normal;font-variant-east-asian:normal;stroke-width:0.0515935"
           id="path872" />
      </g>
    </g>
  </g>
</svg>
